<svg width="349" height="280" viewBox="0 0 349 280" fill="none" xmlns="http://www.w3.org/2000/svg">
<g filter="url(#filter0_d_8_2512)">
<path d="M55.4519 58.0229L16.2712 135.023C8.82367 149.659 19.4566 167 35.8788 167H235.84C244.529 167 252.404 161.886 255.938 153.948L290.221 76.9483C296.699 62.3985 286.049 46 270.123 46H75.0595C66.7823 46 59.2056 50.6458 55.4519 58.0229Z" fill="#F4F4F4" fill-opacity="0.8" shape-rendering="crispEdges"/>
</g>
<mask id="mask0_8_2512" style="mask-type:alpha" maskUnits="userSpaceOnUse" x="29" y="0" width="320" height="280">
<g clip-path="url(#clip0_8_2512)">
<circle cx="31.5" cy="2.5" r="2.5" fill="#D2D6DB"/>
<circle cx="44.5" cy="2.5" r="2.5" fill="#D2D6DB"/>
<circle cx="57.5" cy="2.5" r="2.5" fill="#D2D6DB"/>
<circle cx="70.5" cy="2.5" r="2.5" fill="#D2D6DB"/>
<circle cx="83.5" cy="2.5" r="2.5" fill="#D2D6DB"/>
<circle cx="96.5" cy="2.5" r="2.5" fill="#D2D6DB"/>
<circle cx="109.5" cy="2.5" r="2.5" fill="#D2D6DB"/>
<circle cx="122.5" cy="2.5" r="2.5" fill="#D2D6DB"/>
<circle cx="135.5" cy="2.5" r="2.5" fill="#D2D6DB"/>
<circle cx="148.5" cy="2.5" r="2.5" fill="#D2D6DB"/>
<circle cx="161.5" cy="2.5" r="2.5" fill="#D2D6DB"/>
<circle cx="174.5" cy="2.5" r="2.5" fill="#D2D6DB"/>
<circle cx="187.5" cy="2.5" r="2.5" fill="#D2D6DB"/>
<circle cx="200.5" cy="2.5" r="2.5" fill="#D2D6DB"/>
<circle cx="213.5" cy="2.5" r="2.5" fill="#D2D6DB"/>
<circle cx="226.5" cy="2.5" r="2.5" fill="#D2D6DB"/>
<circle cx="239.5" cy="2.5" r="2.5" fill="#D2D6DB"/>
<circle cx="252.5" cy="2.5" r="2.5" fill="#D2D6DB"/>
<circle cx="265.5" cy="2.5" r="2.5" fill="#D2D6DB"/>
<circle cx="278.5" cy="2.5" r="2.5" fill="#D2D6DB"/>
<circle cx="291.5" cy="2.5" r="2.5" fill="#D2D6DB"/>
<circle cx="304.5" cy="2.5" r="2.5" fill="#D2D6DB"/>
<circle cx="317.5" cy="2.5" r="2.5" fill="#D2D6DB"/>
<circle cx="330.5" cy="2.5" r="2.5" fill="#D2D6DB"/>
<circle cx="343.5" cy="2.5" r="2.5" fill="#D2D6DB"/>
<circle cx="31.5" cy="15.5" r="2.5" fill="#D2D6DB"/>
<circle cx="44.5" cy="15.5" r="2.5" fill="#D2D6DB"/>
<circle cx="57.5" cy="15.5" r="2.5" fill="#D2D6DB"/>
<circle cx="70.5" cy="15.5" r="2.5" fill="#D2D6DB"/>
<circle cx="83.5" cy="15.5" r="2.5" fill="#D2D6DB"/>
<circle cx="96.5" cy="15.5" r="2.5" fill="#D2D6DB"/>
<circle cx="109.5" cy="15.5" r="2.5" fill="#D2D6DB"/>
<circle cx="122.5" cy="15.5" r="2.5" fill="#D2D6DB"/>
<circle cx="135.5" cy="15.5" r="2.5" fill="#D2D6DB"/>
<circle cx="148.5" cy="15.5" r="2.5" fill="#D2D6DB"/>
<circle cx="161.5" cy="15.5" r="2.5" fill="#D2D6DB"/>
<circle cx="174.5" cy="15.5" r="2.5" fill="#D2D6DB"/>
<circle cx="187.5" cy="15.5" r="2.5" fill="#D2D6DB"/>
<circle cx="200.5" cy="15.5" r="2.5" fill="#D2D6DB"/>
<circle cx="213.5" cy="15.5" r="2.5" fill="#D2D6DB"/>
<circle cx="226.5" cy="15.5" r="2.5" fill="#D2D6DB"/>
<circle cx="239.5" cy="15.5" r="2.5" fill="#D2D6DB"/>
<circle cx="252.5" cy="15.5" r="2.5" fill="#D2D6DB"/>
<circle cx="265.5" cy="15.5" r="2.5" fill="#D2D6DB"/>
<circle cx="278.5" cy="15.5" r="2.5" fill="#D2D6DB"/>
<circle cx="291.5" cy="15.5" r="2.5" fill="#D2D6DB"/>
<circle cx="304.5" cy="15.5" r="2.5" fill="#D2D6DB"/>
<circle cx="317.5" cy="15.5" r="2.5" fill="#D2D6DB"/>
<circle cx="330.5" cy="15.5" r="2.5" fill="#D2D6DB"/>
<circle cx="343.5" cy="15.5" r="2.5" fill="#D2D6DB"/>
<circle cx="31.5" cy="28.5" r="2.5" fill="#D2D6DB"/>
<circle cx="44.5" cy="28.5" r="2.5" fill="#D2D6DB"/>
<circle cx="57.5" cy="28.5" r="2.5" fill="#D2D6DB"/>
<circle cx="70.5" cy="28.5" r="2.5" fill="#D2D6DB"/>
<circle cx="83.5" cy="28.5" r="2.5" fill="#D2D6DB"/>
<circle cx="96.5" cy="28.5" r="2.5" fill="#D2D6DB"/>
<circle cx="109.5" cy="28.5" r="2.5" fill="#D2D6DB"/>
<circle cx="122.5" cy="28.5" r="2.5" fill="#D2D6DB"/>
<circle cx="135.5" cy="28.5" r="2.5" fill="#D2D6DB"/>
<circle cx="148.5" cy="28.5" r="2.5" fill="#D2D6DB"/>
<circle cx="161.5" cy="28.5" r="2.5" fill="#D2D6DB"/>
<circle cx="174.5" cy="28.5" r="2.5" fill="#D2D6DB"/>
<circle cx="187.5" cy="28.5" r="2.5" fill="#D2D6DB"/>
<circle cx="200.5" cy="28.5" r="2.5" fill="#D2D6DB"/>
<circle cx="213.5" cy="28.5" r="2.5" fill="#D2D6DB"/>
<circle cx="226.5" cy="28.5" r="2.5" fill="#D2D6DB"/>
<circle cx="239.5" cy="28.5" r="2.5" fill="#D2D6DB"/>
<circle cx="252.5" cy="28.5" r="2.5" fill="#D2D6DB"/>
<circle cx="265.5" cy="28.5" r="2.5" fill="#D2D6DB"/>
<circle cx="278.5" cy="28.5" r="2.5" fill="#D2D6DB"/>
<circle cx="291.5" cy="28.5" r="2.5" fill="#D2D6DB"/>
<circle cx="304.5" cy="28.5" r="2.5" fill="#D2D6DB"/>
<circle cx="317.5" cy="28.5" r="2.5" fill="#D2D6DB"/>
<circle cx="330.5" cy="28.5" r="2.5" fill="#D2D6DB"/>
<circle cx="343.5" cy="28.5" r="2.5" fill="#D2D6DB"/>
<circle cx="31.5" cy="41.5" r="2.5" fill="#D2D6DB"/>
<circle cx="44.5" cy="41.5" r="2.5" fill="#D2D6DB"/>
<circle cx="57.5" cy="41.5" r="2.5" fill="#D2D6DB"/>
<circle cx="70.5" cy="41.5" r="2.5" fill="#D2D6DB"/>
<circle cx="83.5" cy="41.5" r="2.5" fill="#D2D6DB"/>
<circle cx="96.5" cy="41.5" r="2.5" fill="#D2D6DB"/>
<circle cx="109.5" cy="41.5" r="2.5" fill="#D2D6DB"/>
<circle cx="122.5" cy="41.5" r="2.5" fill="#D2D6DB"/>
<circle cx="135.5" cy="41.5" r="2.5" fill="#D2D6DB"/>
<circle cx="148.5" cy="41.5" r="2.5" fill="#D2D6DB"/>
<circle cx="161.5" cy="41.5" r="2.5" fill="#D2D6DB"/>
<circle cx="174.5" cy="41.5" r="2.5" fill="#D2D6DB"/>
<circle cx="187.5" cy="41.5" r="2.5" fill="#D2D6DB"/>
<circle cx="200.5" cy="41.5" r="2.5" fill="#D2D6DB"/>
<circle cx="213.5" cy="41.5" r="2.5" fill="#D2D6DB"/>
<circle cx="226.5" cy="41.5" r="2.5" fill="#D2D6DB"/>
<circle cx="239.5" cy="41.5" r="2.5" fill="#D2D6DB"/>
<circle cx="252.5" cy="41.5" r="2.5" fill="#D2D6DB"/>
<circle cx="265.5" cy="41.5" r="2.5" fill="#D2D6DB"/>
<circle cx="278.5" cy="41.5" r="2.5" fill="#D2D6DB"/>
<circle cx="291.5" cy="41.5" r="2.5" fill="#D2D6DB"/>
<circle cx="304.5" cy="41.5" r="2.5" fill="#D2D6DB"/>
<circle cx="317.5" cy="41.5" r="2.5" fill="#D2D6DB"/>
<circle cx="330.5" cy="41.5" r="2.5" fill="#D2D6DB"/>
<circle cx="343.5" cy="41.5" r="2.5" fill="#D2D6DB"/>
<circle cx="31.5" cy="54.5" r="2.5" fill="#D2D6DB"/>
<circle cx="44.5" cy="54.5" r="2.5" fill="#D2D6DB"/>
<circle cx="57.5" cy="54.5" r="2.5" fill="#D2D6DB"/>
<circle cx="70.5" cy="54.5" r="2.5" fill="#D2D6DB"/>
<circle cx="83.5" cy="54.5" r="2.5" fill="#D2D6DB"/>
<circle cx="96.5" cy="54.5" r="2.5" fill="#D2D6DB"/>
<circle cx="109.5" cy="54.5" r="2.5" fill="#D2D6DB"/>
<circle cx="122.5" cy="54.5" r="2.5" fill="#D2D6DB"/>
<circle cx="135.5" cy="54.5" r="2.5" fill="#D2D6DB"/>
<circle cx="148.5" cy="54.5" r="2.5" fill="#D2D6DB"/>
<circle cx="161.5" cy="54.5" r="2.5" fill="#D2D6DB"/>
<circle cx="174.5" cy="54.5" r="2.5" fill="#D2D6DB"/>
<circle cx="187.5" cy="54.5" r="2.5" fill="#D2D6DB"/>
<circle cx="200.5" cy="54.5" r="2.5" fill="#D2D6DB"/>
<circle cx="213.5" cy="54.5" r="2.5" fill="#D2D6DB"/>
<circle cx="226.5" cy="54.5" r="2.5" fill="#D2D6DB"/>
<circle cx="239.5" cy="54.5" r="2.5" fill="#D2D6DB"/>
<circle cx="252.5" cy="54.5" r="2.5" fill="#D2D6DB"/>
<circle cx="265.5" cy="54.5" r="2.5" fill="#D2D6DB"/>
<circle cx="278.5" cy="54.5" r="2.5" fill="#D2D6DB"/>
<circle cx="291.5" cy="54.5" r="2.5" fill="#D2D6DB"/>
<circle cx="304.5" cy="54.5" r="2.5" fill="#D2D6DB"/>
<circle cx="317.5" cy="54.5" r="2.5" fill="#D2D6DB"/>
<circle cx="330.5" cy="54.5" r="2.5" fill="#D2D6DB"/>
<circle cx="343.5" cy="54.5" r="2.5" fill="#D2D6DB"/>
<circle cx="31.5" cy="67.5" r="2.5" fill="#D2D6DB"/>
<circle cx="44.5" cy="67.5" r="2.5" fill="#D2D6DB"/>
<circle cx="57.5" cy="67.5" r="2.5" fill="#D2D6DB"/>
<circle cx="70.5" cy="67.5" r="2.5" fill="#D2D6DB"/>
<circle cx="83.5" cy="67.5" r="2.5" fill="#D2D6DB"/>
<circle cx="96.5" cy="67.5" r="2.5" fill="#D2D6DB"/>
<circle cx="109.5" cy="67.5" r="2.5" fill="#D2D6DB"/>
<circle cx="122.5" cy="67.5" r="2.5" fill="#D2D6DB"/>
<circle cx="135.5" cy="67.5" r="2.5" fill="#D2D6DB"/>
<circle cx="148.5" cy="67.5" r="2.5" fill="#D2D6DB"/>
<circle cx="161.5" cy="67.5" r="2.5" fill="#D2D6DB"/>
<circle cx="174.5" cy="67.5" r="2.5" fill="#D2D6DB"/>
<circle cx="187.5" cy="67.5" r="2.5" fill="#D2D6DB"/>
<circle cx="200.5" cy="67.5" r="2.5" fill="#D2D6DB"/>
<circle cx="213.5" cy="67.5" r="2.5" fill="#D2D6DB"/>
<circle cx="226.5" cy="67.5" r="2.5" fill="#D2D6DB"/>
<circle cx="239.5" cy="67.5" r="2.5" fill="#D2D6DB"/>
<circle cx="252.5" cy="67.5" r="2.5" fill="#D2D6DB"/>
<circle cx="265.5" cy="67.5" r="2.5" fill="#D2D6DB"/>
<circle cx="278.5" cy="67.5" r="2.5" fill="#D2D6DB"/>
<circle cx="291.5" cy="67.5" r="2.5" fill="#D2D6DB"/>
<circle cx="304.5" cy="67.5" r="2.5" fill="#D2D6DB"/>
<circle cx="317.5" cy="67.5" r="2.5" fill="#D2D6DB"/>
<circle cx="330.5" cy="67.5" r="2.5" fill="#D2D6DB"/>
<circle cx="343.5" cy="67.5" r="2.5" fill="#D2D6DB"/>
<circle cx="31.5" cy="80.5" r="2.5" fill="#D2D6DB"/>
<circle cx="44.5" cy="80.5" r="2.5" fill="#D2D6DB"/>
<circle cx="57.5" cy="80.5" r="2.5" fill="#D2D6DB"/>
<circle cx="70.5" cy="80.5" r="2.5" fill="#D2D6DB"/>
<circle cx="83.5" cy="80.5" r="2.5" fill="#D2D6DB"/>
<circle cx="96.5" cy="80.5" r="2.5" fill="#D2D6DB"/>
<circle cx="109.5" cy="80.5" r="2.5" fill="#D2D6DB"/>
<circle cx="122.5" cy="80.5" r="2.5" fill="#D2D6DB"/>
<circle cx="135.5" cy="80.5" r="2.5" fill="#D2D6DB"/>
<circle cx="148.5" cy="80.5" r="2.5" fill="#D2D6DB"/>
<circle cx="161.5" cy="80.5" r="2.5" fill="#D2D6DB"/>
<circle cx="174.5" cy="80.5" r="2.5" fill="#D2D6DB"/>
<circle cx="187.5" cy="80.5" r="2.5" fill="#D2D6DB"/>
<circle cx="200.5" cy="80.5" r="2.5" fill="#D2D6DB"/>
<circle cx="213.5" cy="80.5" r="2.5" fill="#D2D6DB"/>
<circle cx="226.5" cy="80.5" r="2.5" fill="#D2D6DB"/>
<circle cx="239.5" cy="80.5" r="2.5" fill="#D2D6DB"/>
<circle cx="252.5" cy="80.5" r="2.5" fill="#D2D6DB"/>
<circle cx="265.5" cy="80.5" r="2.5" fill="#D2D6DB"/>
<circle cx="278.5" cy="80.5" r="2.5" fill="#D2D6DB"/>
<circle cx="291.5" cy="80.5" r="2.5" fill="#D2D6DB"/>
<circle cx="304.5" cy="80.5" r="2.5" fill="#D2D6DB"/>
<circle cx="317.5" cy="80.5" r="2.5" fill="#D2D6DB"/>
<circle cx="330.5" cy="80.5" r="2.5" fill="#D2D6DB"/>
<circle cx="343.5" cy="80.5" r="2.5" fill="#D2D6DB"/>
<circle cx="31.5" cy="93.5" r="2.5" fill="#D2D6DB"/>
<circle cx="44.5" cy="93.5" r="2.5" fill="#D2D6DB"/>
<circle cx="57.5" cy="93.5" r="2.5" fill="#D2D6DB"/>
<circle cx="70.5" cy="93.5" r="2.5" fill="#D2D6DB"/>
<circle cx="83.5" cy="93.5" r="2.5" fill="#D2D6DB"/>
<circle cx="96.5" cy="93.5" r="2.5" fill="#D2D6DB"/>
<circle cx="109.5" cy="93.5" r="2.5" fill="#D2D6DB"/>
<circle cx="122.5" cy="93.5" r="2.5" fill="#D2D6DB"/>
<circle cx="135.5" cy="93.5" r="2.5" fill="#D2D6DB"/>
<circle cx="148.5" cy="93.5" r="2.5" fill="#D2D6DB"/>
<circle cx="161.5" cy="93.5" r="2.5" fill="#D2D6DB"/>
<circle cx="174.5" cy="93.5" r="2.5" fill="#D2D6DB"/>
<circle cx="187.5" cy="93.5" r="2.5" fill="#D2D6DB"/>
<circle cx="200.5" cy="93.5" r="2.5" fill="#D2D6DB"/>
<circle cx="213.5" cy="93.5" r="2.5" fill="#D2D6DB"/>
<circle cx="226.5" cy="93.5" r="2.5" fill="#D2D6DB"/>
<circle cx="239.5" cy="93.5" r="2.5" fill="#D2D6DB"/>
<circle cx="252.5" cy="93.5" r="2.5" fill="#D2D6DB"/>
<circle cx="265.5" cy="93.5" r="2.5" fill="#D2D6DB"/>
<circle cx="278.5" cy="93.5" r="2.5" fill="#D2D6DB"/>
<circle cx="291.5" cy="93.5" r="2.5" fill="#D2D6DB"/>
<circle cx="304.5" cy="93.5" r="2.5" fill="#D2D6DB"/>
<circle cx="317.5" cy="93.5" r="2.5" fill="#D2D6DB"/>
<circle cx="330.5" cy="93.5" r="2.5" fill="#D2D6DB"/>
<circle cx="343.5" cy="93.5" r="2.5" fill="#D2D6DB"/>
<circle cx="31.5" cy="106.5" r="2.5" fill="#D2D6DB"/>
<circle cx="44.5" cy="106.5" r="2.5" fill="#D2D6DB"/>
<circle cx="57.5" cy="106.5" r="2.5" fill="#D2D6DB"/>
<circle cx="70.5" cy="106.5" r="2.5" fill="#D2D6DB"/>
<circle cx="83.5" cy="106.5" r="2.5" fill="#D2D6DB"/>
<circle cx="96.5" cy="106.5" r="2.5" fill="#D2D6DB"/>
<circle cx="109.5" cy="106.5" r="2.5" fill="#D2D6DB"/>
<circle cx="122.5" cy="106.5" r="2.5" fill="#D2D6DB"/>
<circle cx="135.5" cy="106.5" r="2.5" fill="#D2D6DB"/>
<circle cx="148.5" cy="106.5" r="2.5" fill="#D2D6DB"/>
<circle cx="161.5" cy="106.5" r="2.5" fill="#D2D6DB"/>
<circle cx="174.5" cy="106.5" r="2.5" fill="#D2D6DB"/>
<circle cx="187.5" cy="106.5" r="2.5" fill="#D2D6DB"/>
<circle cx="200.5" cy="106.5" r="2.5" fill="#D2D6DB"/>
<circle cx="213.5" cy="106.5" r="2.5" fill="#D2D6DB"/>
<circle cx="226.5" cy="106.5" r="2.5" fill="#D2D6DB"/>
<circle cx="239.5" cy="106.5" r="2.5" fill="#D2D6DB"/>
<circle cx="252.5" cy="106.5" r="2.5" fill="#D2D6DB"/>
<circle cx="265.5" cy="106.5" r="2.5" fill="#D2D6DB"/>
<circle cx="278.5" cy="106.5" r="2.5" fill="#D2D6DB"/>
<circle cx="291.5" cy="106.5" r="2.5" fill="#D2D6DB"/>
<circle cx="304.5" cy="106.5" r="2.5" fill="#D2D6DB"/>
<circle cx="317.5" cy="106.5" r="2.5" fill="#D2D6DB"/>
<circle cx="330.5" cy="106.5" r="2.5" fill="#D2D6DB"/>
<circle cx="343.5" cy="106.5" r="2.5" fill="#D2D6DB"/>
<circle cx="31.5" cy="119.5" r="2.5" fill="#D2D6DB"/>
<circle cx="44.5" cy="119.5" r="2.5" fill="#D2D6DB"/>
<circle cx="57.5" cy="119.5" r="2.5" fill="#D2D6DB"/>
<circle cx="70.5" cy="119.5" r="2.5" fill="#D2D6DB"/>
<circle cx="83.5" cy="119.5" r="2.5" fill="#D2D6DB"/>
<circle cx="96.5" cy="119.5" r="2.5" fill="#D2D6DB"/>
<circle cx="109.5" cy="119.5" r="2.5" fill="#D2D6DB"/>
<circle cx="122.5" cy="119.5" r="2.5" fill="#D2D6DB"/>
<circle cx="135.5" cy="119.5" r="2.5" fill="#D2D6DB"/>
<circle cx="148.5" cy="119.5" r="2.5" fill="#D2D6DB"/>
<circle cx="161.5" cy="119.5" r="2.5" fill="#D2D6DB"/>
<circle cx="174.5" cy="119.5" r="2.5" fill="#D2D6DB"/>
<circle cx="187.5" cy="119.5" r="2.5" fill="#D2D6DB"/>
<circle cx="200.5" cy="119.5" r="2.5" fill="#D2D6DB"/>
<circle cx="213.5" cy="119.5" r="2.5" fill="#D2D6DB"/>
<circle cx="226.5" cy="119.5" r="2.5" fill="#D2D6DB"/>
<circle cx="239.5" cy="119.5" r="2.5" fill="#D2D6DB"/>
<circle cx="252.5" cy="119.5" r="2.5" fill="#D2D6DB"/>
<circle cx="265.5" cy="119.5" r="2.5" fill="#D2D6DB"/>
<circle cx="278.5" cy="119.5" r="2.5" fill="#D2D6DB"/>
<circle cx="291.5" cy="119.5" r="2.5" fill="#D2D6DB"/>
<circle cx="304.5" cy="119.5" r="2.5" fill="#D2D6DB"/>
<circle cx="317.5" cy="119.5" r="2.5" fill="#D2D6DB"/>
<circle cx="330.5" cy="119.5" r="2.5" fill="#D2D6DB"/>
<circle cx="343.5" cy="119.5" r="2.5" fill="#D2D6DB"/>
<circle cx="31.5" cy="132.5" r="2.5" fill="#D2D6DB"/>
<circle cx="44.5" cy="132.5" r="2.5" fill="#D2D6DB"/>
<circle cx="57.5" cy="132.5" r="2.5" fill="#D2D6DB"/>
<circle cx="70.5" cy="132.5" r="2.5" fill="#D2D6DB"/>
<circle cx="83.5" cy="132.5" r="2.5" fill="#D2D6DB"/>
<circle cx="96.5" cy="132.5" r="2.5" fill="#D2D6DB"/>
<circle cx="109.5" cy="132.5" r="2.5" fill="#D2D6DB"/>
<circle cx="122.5" cy="132.5" r="2.5" fill="#D2D6DB"/>
<circle cx="135.5" cy="132.5" r="2.5" fill="#D2D6DB"/>
<circle cx="148.5" cy="132.5" r="2.5" fill="#D2D6DB"/>
<circle cx="161.5" cy="132.5" r="2.5" fill="#D2D6DB"/>
<circle cx="174.5" cy="132.5" r="2.5" fill="#D2D6DB"/>
<circle cx="187.5" cy="132.5" r="2.5" fill="#D2D6DB"/>
<circle cx="200.5" cy="132.5" r="2.5" fill="#D2D6DB"/>
<circle cx="213.5" cy="132.5" r="2.5" fill="#D2D6DB"/>
<circle cx="226.5" cy="132.5" r="2.5" fill="#D2D6DB"/>
<circle cx="239.5" cy="132.5" r="2.5" fill="#D2D6DB"/>
<circle cx="252.5" cy="132.5" r="2.5" fill="#D2D6DB"/>
<circle cx="265.5" cy="132.5" r="2.5" fill="#D2D6DB"/>
<circle cx="278.5" cy="132.5" r="2.5" fill="#D2D6DB"/>
<circle cx="291.5" cy="132.5" r="2.5" fill="#D2D6DB"/>
<circle cx="304.5" cy="132.5" r="2.5" fill="#D2D6DB"/>
<circle cx="317.5" cy="132.5" r="2.5" fill="#D2D6DB"/>
<circle cx="330.5" cy="132.5" r="2.5" fill="#D2D6DB"/>
<circle cx="343.5" cy="132.5" r="2.5" fill="#D2D6DB"/>
<circle cx="31.5" cy="145.5" r="2.5" fill="#D2D6DB"/>
<circle cx="44.5" cy="145.5" r="2.5" fill="#D2D6DB"/>
<circle cx="57.5" cy="145.5" r="2.5" fill="#D2D6DB"/>
<circle cx="70.5" cy="145.5" r="2.5" fill="#D2D6DB"/>
<circle cx="83.5" cy="145.5" r="2.5" fill="#D2D6DB"/>
<circle cx="96.5" cy="145.5" r="2.5" fill="#D2D6DB"/>
<circle cx="109.5" cy="145.5" r="2.5" fill="#D2D6DB"/>
<circle cx="122.5" cy="145.5" r="2.5" fill="#D2D6DB"/>
<circle cx="135.5" cy="145.5" r="2.5" fill="#D2D6DB"/>
<circle cx="148.5" cy="145.5" r="2.5" fill="#D2D6DB"/>
<circle cx="161.5" cy="145.5" r="2.5" fill="#D2D6DB"/>
<circle cx="174.5" cy="145.5" r="2.5" fill="#D2D6DB"/>
<circle cx="187.5" cy="145.5" r="2.5" fill="#D2D6DB"/>
<circle cx="200.5" cy="145.5" r="2.5" fill="#D2D6DB"/>
<circle cx="213.5" cy="145.5" r="2.5" fill="#D2D6DB"/>
<circle cx="226.5" cy="145.5" r="2.5" fill="#D2D6DB"/>
<circle cx="239.5" cy="145.5" r="2.5" fill="#D2D6DB"/>
<circle cx="252.5" cy="145.5" r="2.5" fill="#D2D6DB"/>
<circle cx="265.5" cy="145.5" r="2.5" fill="#D2D6DB"/>
<circle cx="278.5" cy="145.5" r="2.5" fill="#D2D6DB"/>
<circle cx="291.5" cy="145.5" r="2.5" fill="#D2D6DB"/>
<circle cx="304.5" cy="145.5" r="2.5" fill="#D2D6DB"/>
<circle cx="317.5" cy="145.5" r="2.5" fill="#D2D6DB"/>
<circle cx="330.5" cy="145.5" r="2.5" fill="#D2D6DB"/>
<circle cx="343.5" cy="145.5" r="2.5" fill="#D2D6DB"/>
<circle cx="31.5" cy="158.5" r="2.5" fill="#D2D6DB"/>
<circle cx="44.5" cy="158.5" r="2.5" fill="#D2D6DB"/>
<circle cx="57.5" cy="158.5" r="2.5" fill="#D2D6DB"/>
<circle cx="70.5" cy="158.5" r="2.5" fill="#D2D6DB"/>
<circle cx="83.5" cy="158.5" r="2.5" fill="#D2D6DB"/>
<circle cx="96.5" cy="158.5" r="2.5" fill="#D2D6DB"/>
<circle cx="109.5" cy="158.5" r="2.5" fill="#D2D6DB"/>
<circle cx="122.5" cy="158.5" r="2.5" fill="#D2D6DB"/>
<circle cx="135.5" cy="158.5" r="2.5" fill="#D2D6DB"/>
<circle cx="148.5" cy="158.5" r="2.5" fill="#D2D6DB"/>
<circle cx="161.5" cy="158.5" r="2.5" fill="#D2D6DB"/>
<circle cx="174.5" cy="158.5" r="2.5" fill="#D2D6DB"/>
<circle cx="187.5" cy="158.5" r="2.5" fill="#D2D6DB"/>
<circle cx="200.5" cy="158.5" r="2.5" fill="#D2D6DB"/>
<circle cx="213.5" cy="158.5" r="2.5" fill="#D2D6DB"/>
<circle cx="226.5" cy="158.5" r="2.5" fill="#D2D6DB"/>
<circle cx="239.5" cy="158.5" r="2.5" fill="#D2D6DB"/>
<circle cx="252.5" cy="158.5" r="2.5" fill="#D2D6DB"/>
<circle cx="265.5" cy="158.5" r="2.5" fill="#D2D6DB"/>
<circle cx="278.5" cy="158.5" r="2.5" fill="#D2D6DB"/>
<circle cx="291.5" cy="158.5" r="2.5" fill="#D2D6DB"/>
<circle cx="304.5" cy="158.5" r="2.5" fill="#D2D6DB"/>
<circle cx="317.5" cy="158.5" r="2.5" fill="#D2D6DB"/>
<circle cx="330.5" cy="158.5" r="2.5" fill="#D2D6DB"/>
<circle cx="343.5" cy="158.5" r="2.5" fill="#D2D6DB"/>
<circle cx="31.5" cy="171.5" r="2.5" fill="#D2D6DB"/>
<circle cx="44.5" cy="171.5" r="2.5" fill="#D2D6DB"/>
<circle cx="57.5" cy="171.5" r="2.5" fill="#D2D6DB"/>
<circle cx="70.5" cy="171.5" r="2.5" fill="#D2D6DB"/>
<circle cx="83.5" cy="171.5" r="2.5" fill="#D2D6DB"/>
<circle cx="96.5" cy="171.5" r="2.5" fill="#D2D6DB"/>
<circle cx="109.5" cy="171.5" r="2.5" fill="#D2D6DB"/>
<circle cx="122.5" cy="171.5" r="2.5" fill="#D2D6DB"/>
<circle cx="135.5" cy="171.5" r="2.5" fill="#D2D6DB"/>
<circle cx="148.5" cy="171.5" r="2.5" fill="#D2D6DB"/>
<circle cx="161.5" cy="171.5" r="2.5" fill="#D2D6DB"/>
<circle cx="174.5" cy="171.5" r="2.5" fill="#D2D6DB"/>
<circle cx="187.5" cy="171.5" r="2.5" fill="#D2D6DB"/>
<circle cx="200.5" cy="171.5" r="2.5" fill="#D2D6DB"/>
<circle cx="213.5" cy="171.5" r="2.5" fill="#D2D6DB"/>
<circle cx="226.5" cy="171.5" r="2.5" fill="#D2D6DB"/>
<circle cx="239.5" cy="171.5" r="2.5" fill="#D2D6DB"/>
<circle cx="252.5" cy="171.5" r="2.5" fill="#D2D6DB"/>
<circle cx="265.5" cy="171.5" r="2.5" fill="#D2D6DB"/>
<circle cx="278.5" cy="171.5" r="2.5" fill="#D2D6DB"/>
<circle cx="291.5" cy="171.5" r="2.5" fill="#D2D6DB"/>
<circle cx="304.5" cy="171.5" r="2.5" fill="#D2D6DB"/>
<circle cx="317.5" cy="171.5" r="2.5" fill="#D2D6DB"/>
<circle cx="330.5" cy="171.5" r="2.5" fill="#D2D6DB"/>
<circle cx="343.5" cy="171.5" r="2.5" fill="#D2D6DB"/>
<circle cx="31.5" cy="184.5" r="2.5" fill="#D2D6DB"/>
<circle cx="44.5" cy="184.5" r="2.5" fill="#D2D6DB"/>
<circle cx="57.5" cy="184.5" r="2.5" fill="#D2D6DB"/>
<circle cx="70.5" cy="184.5" r="2.5" fill="#D2D6DB"/>
<circle cx="83.5" cy="184.5" r="2.5" fill="#D2D6DB"/>
<circle cx="96.5" cy="184.5" r="2.5" fill="#D2D6DB"/>
<circle cx="109.5" cy="184.5" r="2.5" fill="#D2D6DB"/>
<circle cx="122.5" cy="184.5" r="2.5" fill="#D2D6DB"/>
<circle cx="135.5" cy="184.5" r="2.5" fill="#D2D6DB"/>
<circle cx="148.5" cy="184.5" r="2.5" fill="#D2D6DB"/>
<circle cx="161.5" cy="184.5" r="2.5" fill="#D2D6DB"/>
<circle cx="174.5" cy="184.5" r="2.5" fill="#D2D6DB"/>
<circle cx="187.5" cy="184.5" r="2.5" fill="#D2D6DB"/>
<circle cx="200.5" cy="184.5" r="2.5" fill="#D2D6DB"/>
<circle cx="213.5" cy="184.5" r="2.5" fill="#D2D6DB"/>
<circle cx="226.5" cy="184.5" r="2.5" fill="#D2D6DB"/>
<circle cx="239.5" cy="184.5" r="2.5" fill="#D2D6DB"/>
<circle cx="252.5" cy="184.5" r="2.5" fill="#D2D6DB"/>
<circle cx="265.5" cy="184.5" r="2.5" fill="#D2D6DB"/>
<circle cx="278.5" cy="184.5" r="2.5" fill="#D2D6DB"/>
<circle cx="291.5" cy="184.5" r="2.5" fill="#D2D6DB"/>
<circle cx="304.5" cy="184.5" r="2.5" fill="#D2D6DB"/>
<circle cx="317.5" cy="184.5" r="2.5" fill="#D2D6DB"/>
<circle cx="330.5" cy="184.5" r="2.5" fill="#D2D6DB"/>
<circle cx="343.5" cy="184.5" r="2.5" fill="#D2D6DB"/>
<circle cx="31.5" cy="197.5" r="2.5" fill="#D2D6DB"/>
<circle cx="44.5" cy="197.5" r="2.5" fill="#D2D6DB"/>
<circle cx="57.5" cy="197.5" r="2.5" fill="#D2D6DB"/>
<circle cx="70.5" cy="197.5" r="2.5" fill="#D2D6DB"/>
<circle cx="83.5" cy="197.5" r="2.5" fill="#D2D6DB"/>
<circle cx="96.5" cy="197.5" r="2.5" fill="#D2D6DB"/>
<circle cx="109.5" cy="197.5" r="2.5" fill="#D2D6DB"/>
<circle cx="122.5" cy="197.5" r="2.5" fill="#D2D6DB"/>
<circle cx="135.5" cy="197.5" r="2.5" fill="#D2D6DB"/>
<circle cx="148.5" cy="197.5" r="2.5" fill="#D2D6DB"/>
<circle cx="161.5" cy="197.5" r="2.5" fill="#D2D6DB"/>
<circle cx="174.5" cy="197.5" r="2.5" fill="#D2D6DB"/>
<circle cx="187.5" cy="197.5" r="2.5" fill="#D2D6DB"/>
<circle cx="200.5" cy="197.5" r="2.5" fill="#D2D6DB"/>
<circle cx="213.5" cy="197.5" r="2.5" fill="#D2D6DB"/>
<circle cx="226.5" cy="197.5" r="2.5" fill="#D2D6DB"/>
<circle cx="239.5" cy="197.5" r="2.5" fill="#D2D6DB"/>
<circle cx="252.5" cy="197.5" r="2.5" fill="#D2D6DB"/>
<circle cx="265.5" cy="197.5" r="2.5" fill="#D2D6DB"/>
<circle cx="278.5" cy="197.5" r="2.5" fill="#D2D6DB"/>
<circle cx="291.5" cy="197.5" r="2.5" fill="#D2D6DB"/>
<circle cx="304.5" cy="197.5" r="2.5" fill="#D2D6DB"/>
<circle cx="317.5" cy="197.5" r="2.5" fill="#D2D6DB"/>
<circle cx="330.5" cy="197.5" r="2.5" fill="#D2D6DB"/>
<circle cx="343.5" cy="197.5" r="2.5" fill="#D2D6DB"/>
<circle cx="31.5" cy="210.5" r="2.5" fill="#D2D6DB"/>
<circle cx="44.5" cy="210.5" r="2.5" fill="#D2D6DB"/>
<circle cx="57.5" cy="210.5" r="2.5" fill="#D2D6DB"/>
<circle cx="70.5" cy="210.5" r="2.5" fill="#D2D6DB"/>
<circle cx="83.5" cy="210.5" r="2.5" fill="#D2D6DB"/>
<circle cx="96.5" cy="210.5" r="2.5" fill="#D2D6DB"/>
<circle cx="109.5" cy="210.5" r="2.5" fill="#D2D6DB"/>
<circle cx="122.5" cy="210.5" r="2.5" fill="#D2D6DB"/>
<circle cx="135.5" cy="210.5" r="2.5" fill="#D2D6DB"/>
<circle cx="148.5" cy="210.5" r="2.5" fill="#D2D6DB"/>
<circle cx="161.5" cy="210.5" r="2.5" fill="#D2D6DB"/>
<circle cx="174.5" cy="210.5" r="2.5" fill="#D2D6DB"/>
<circle cx="187.5" cy="210.5" r="2.5" fill="#D2D6DB"/>
<circle cx="200.5" cy="210.5" r="2.5" fill="#D2D6DB"/>
<circle cx="213.5" cy="210.5" r="2.5" fill="#D2D6DB"/>
<circle cx="226.5" cy="210.5" r="2.5" fill="#D2D6DB"/>
<circle cx="239.5" cy="210.5" r="2.5" fill="#D2D6DB"/>
<circle cx="252.5" cy="210.5" r="2.5" fill="#D2D6DB"/>
<circle cx="265.5" cy="210.5" r="2.5" fill="#D2D6DB"/>
<circle cx="278.5" cy="210.5" r="2.5" fill="#D2D6DB"/>
<circle cx="291.5" cy="210.5" r="2.5" fill="#D2D6DB"/>
<circle cx="304.5" cy="210.5" r="2.5" fill="#D2D6DB"/>
<circle cx="317.5" cy="210.5" r="2.5" fill="#D2D6DB"/>
<circle cx="330.5" cy="210.5" r="2.5" fill="#D2D6DB"/>
<circle cx="343.5" cy="210.5" r="2.5" fill="#D2D6DB"/>
<circle cx="31.5" cy="223.5" r="2.5" fill="#D2D6DB"/>
<circle cx="44.5" cy="223.5" r="2.5" fill="#D2D6DB"/>
<circle cx="57.5" cy="223.5" r="2.5" fill="#D2D6DB"/>
<circle cx="70.5" cy="223.5" r="2.5" fill="#D2D6DB"/>
<circle cx="83.5" cy="223.5" r="2.5" fill="#D2D6DB"/>
<circle cx="96.5" cy="223.5" r="2.5" fill="#D2D6DB"/>
<circle cx="109.5" cy="223.5" r="2.5" fill="#D2D6DB"/>
<circle cx="122.5" cy="223.5" r="2.5" fill="#D2D6DB"/>
<circle cx="135.5" cy="223.5" r="2.5" fill="#D2D6DB"/>
<circle cx="148.5" cy="223.5" r="2.5" fill="#D2D6DB"/>
<circle cx="161.5" cy="223.5" r="2.5" fill="#D2D6DB"/>
<circle cx="174.5" cy="223.5" r="2.5" fill="#D2D6DB"/>
<circle cx="187.5" cy="223.5" r="2.5" fill="#D2D6DB"/>
<circle cx="200.5" cy="223.5" r="2.5" fill="#D2D6DB"/>
<circle cx="213.5" cy="223.5" r="2.5" fill="#D2D6DB"/>
<circle cx="226.5" cy="223.5" r="2.5" fill="#D2D6DB"/>
<circle cx="239.5" cy="223.5" r="2.5" fill="#D2D6DB"/>
<circle cx="252.5" cy="223.5" r="2.5" fill="#D2D6DB"/>
<circle cx="265.5" cy="223.5" r="2.5" fill="#D2D6DB"/>
<circle cx="278.5" cy="223.5" r="2.5" fill="#D2D6DB"/>
<circle cx="291.5" cy="223.5" r="2.5" fill="#D2D6DB"/>
<circle cx="304.5" cy="223.5" r="2.5" fill="#D2D6DB"/>
<circle cx="317.5" cy="223.5" r="2.5" fill="#D2D6DB"/>
<circle cx="330.5" cy="223.5" r="2.5" fill="#D2D6DB"/>
<circle cx="343.5" cy="223.5" r="2.5" fill="#D2D6DB"/>
<circle cx="31.5" cy="236.5" r="2.5" fill="#D2D6DB"/>
<circle cx="44.5" cy="236.5" r="2.5" fill="#D2D6DB"/>
<circle cx="57.5" cy="236.5" r="2.5" fill="#D2D6DB"/>
<circle cx="70.5" cy="236.5" r="2.5" fill="#D2D6DB"/>
<circle cx="83.5" cy="236.5" r="2.5" fill="#D2D6DB"/>
<circle cx="96.5" cy="236.5" r="2.5" fill="#D2D6DB"/>
<circle cx="109.5" cy="236.5" r="2.5" fill="#D2D6DB"/>
<circle cx="122.5" cy="236.5" r="2.5" fill="#D2D6DB"/>
<circle cx="135.5" cy="236.5" r="2.5" fill="#D2D6DB"/>
<circle cx="148.5" cy="236.5" r="2.5" fill="#D2D6DB"/>
<circle cx="161.5" cy="236.5" r="2.5" fill="#D2D6DB"/>
<circle cx="174.5" cy="236.5" r="2.5" fill="#D2D6DB"/>
<circle cx="187.5" cy="236.5" r="2.5" fill="#D2D6DB"/>
<circle cx="200.5" cy="236.5" r="2.5" fill="#D2D6DB"/>
<circle cx="213.5" cy="236.5" r="2.5" fill="#D2D6DB"/>
<circle cx="226.5" cy="236.5" r="2.5" fill="#D2D6DB"/>
<circle cx="239.5" cy="236.5" r="2.5" fill="#D2D6DB"/>
<circle cx="252.5" cy="236.5" r="2.5" fill="#D2D6DB"/>
<circle cx="265.5" cy="236.5" r="2.5" fill="#D2D6DB"/>
<circle cx="278.5" cy="236.5" r="2.5" fill="#D2D6DB"/>
<circle cx="291.5" cy="236.5" r="2.5" fill="#D2D6DB"/>
<circle cx="304.5" cy="236.5" r="2.5" fill="#D2D6DB"/>
<circle cx="317.5" cy="236.5" r="2.5" fill="#D2D6DB"/>
<circle cx="330.5" cy="236.5" r="2.5" fill="#D2D6DB"/>
<circle cx="343.5" cy="236.5" r="2.5" fill="#D2D6DB"/>
<circle cx="31.5" cy="249.5" r="2.5" fill="#D2D6DB"/>
<circle cx="44.5" cy="249.5" r="2.5" fill="#D2D6DB"/>
<circle cx="57.5" cy="249.5" r="2.5" fill="#D2D6DB"/>
<circle cx="70.5" cy="249.5" r="2.5" fill="#D2D6DB"/>
<circle cx="83.5" cy="249.5" r="2.5" fill="#D2D6DB"/>
<circle cx="96.5" cy="249.5" r="2.5" fill="#D2D6DB"/>
<circle cx="109.5" cy="249.5" r="2.5" fill="#D2D6DB"/>
<circle cx="122.5" cy="249.5" r="2.5" fill="#D2D6DB"/>
<circle cx="135.5" cy="249.5" r="2.5" fill="#D2D6DB"/>
<circle cx="148.5" cy="249.5" r="2.5" fill="#D2D6DB"/>
<circle cx="161.5" cy="249.5" r="2.5" fill="#D2D6DB"/>
<circle cx="174.5" cy="249.5" r="2.5" fill="#D2D6DB"/>
<circle cx="187.5" cy="249.5" r="2.5" fill="#D2D6DB"/>
<circle cx="200.5" cy="249.5" r="2.5" fill="#D2D6DB"/>
<circle cx="213.5" cy="249.5" r="2.5" fill="#D2D6DB"/>
<circle cx="226.5" cy="249.5" r="2.5" fill="#D2D6DB"/>
<circle cx="239.5" cy="249.5" r="2.5" fill="#D2D6DB"/>
<circle cx="252.5" cy="249.5" r="2.5" fill="#D2D6DB"/>
<circle cx="265.5" cy="249.5" r="2.5" fill="#D2D6DB"/>
<circle cx="278.5" cy="249.5" r="2.5" fill="#D2D6DB"/>
<circle cx="291.5" cy="249.5" r="2.5" fill="#D2D6DB"/>
<circle cx="304.5" cy="249.5" r="2.5" fill="#D2D6DB"/>
<circle cx="317.5" cy="249.5" r="2.5" fill="#D2D6DB"/>
<circle cx="330.5" cy="249.5" r="2.5" fill="#D2D6DB"/>
<circle cx="343.5" cy="249.5" r="2.5" fill="#D2D6DB"/>
<circle cx="31.5" cy="262.5" r="2.5" fill="#D2D6DB"/>
<circle cx="44.5" cy="262.5" r="2.5" fill="#D2D6DB"/>
<circle cx="57.5" cy="262.5" r="2.5" fill="#D2D6DB"/>
<circle cx="70.5" cy="262.5" r="2.5" fill="#D2D6DB"/>
<circle cx="83.5" cy="262.5" r="2.5" fill="#D2D6DB"/>
<circle cx="96.5" cy="262.5" r="2.5" fill="#D2D6DB"/>
<circle cx="109.5" cy="262.5" r="2.5" fill="#D2D6DB"/>
<circle cx="122.5" cy="262.5" r="2.5" fill="#D2D6DB"/>
<circle cx="135.5" cy="262.5" r="2.5" fill="#D2D6DB"/>
<circle cx="148.5" cy="262.5" r="2.5" fill="#D2D6DB"/>
<circle cx="161.5" cy="262.5" r="2.5" fill="#D2D6DB"/>
<circle cx="174.5" cy="262.5" r="2.5" fill="#D2D6DB"/>
<circle cx="187.5" cy="262.5" r="2.5" fill="#D2D6DB"/>
<circle cx="200.5" cy="262.5" r="2.5" fill="#D2D6DB"/>
<circle cx="213.5" cy="262.5" r="2.5" fill="#D2D6DB"/>
<circle cx="226.5" cy="262.5" r="2.5" fill="#D2D6DB"/>
<circle cx="239.5" cy="262.5" r="2.5" fill="#D2D6DB"/>
<circle cx="252.5" cy="262.5" r="2.5" fill="#D2D6DB"/>
<circle cx="265.5" cy="262.5" r="2.5" fill="#D2D6DB"/>
<circle cx="278.5" cy="262.5" r="2.5" fill="#D2D6DB"/>
<circle cx="291.5" cy="262.5" r="2.5" fill="#D2D6DB"/>
<circle cx="304.5" cy="262.5" r="2.5" fill="#D2D6DB"/>
<circle cx="317.5" cy="262.5" r="2.5" fill="#D2D6DB"/>
<circle cx="330.5" cy="262.5" r="2.5" fill="#D2D6DB"/>
<circle cx="343.5" cy="262.5" r="2.5" fill="#D2D6DB"/>
<circle cx="31.5" cy="275.5" r="2.5" fill="#D2D6DB"/>
<circle cx="44.5" cy="275.5" r="2.5" fill="#D2D6DB"/>
<circle cx="57.5" cy="275.5" r="2.5" fill="#D2D6DB"/>
<circle cx="70.5" cy="275.5" r="2.5" fill="#D2D6DB"/>
<circle cx="83.5" cy="275.5" r="2.5" fill="#D2D6DB"/>
<circle cx="96.5" cy="275.5" r="2.5" fill="#D2D6DB"/>
<circle cx="109.5" cy="275.5" r="2.5" fill="#D2D6DB"/>
<circle cx="122.5" cy="275.5" r="2.5" fill="#D2D6DB"/>
<circle cx="135.5" cy="275.5" r="2.5" fill="#D2D6DB"/>
<circle cx="148.5" cy="275.5" r="2.5" fill="#D2D6DB"/>
<circle cx="161.5" cy="275.5" r="2.5" fill="#D2D6DB"/>
<circle cx="174.5" cy="275.5" r="2.5" fill="#D2D6DB"/>
<circle cx="187.5" cy="275.5" r="2.5" fill="#D2D6DB"/>
<circle cx="200.5" cy="275.5" r="2.5" fill="#D2D6DB"/>
<circle cx="213.5" cy="275.5" r="2.5" fill="#D2D6DB"/>
<circle cx="226.5" cy="275.5" r="2.5" fill="#D2D6DB"/>
<circle cx="239.5" cy="275.5" r="2.5" fill="#D2D6DB"/>
<circle cx="252.5" cy="275.5" r="2.5" fill="#D2D6DB"/>
<circle cx="265.5" cy="275.5" r="2.5" fill="#D2D6DB"/>
<circle cx="278.5" cy="275.5" r="2.5" fill="#D2D6DB"/>
<circle cx="291.5" cy="275.5" r="2.5" fill="#D2D6DB"/>
<circle cx="304.5" cy="275.5" r="2.5" fill="#D2D6DB"/>
<circle cx="317.5" cy="275.5" r="2.5" fill="#D2D6DB"/>
<circle cx="330.5" cy="275.5" r="2.5" fill="#D2D6DB"/>
<circle cx="343.5" cy="275.5" r="2.5" fill="#D2D6DB"/>
</g>
</mask>
<g mask="url(#mask0_8_2512)">
<path d="M100.452 82.0229L61.2712 159.023C53.8237 173.659 64.4566 191 80.8788 191H280.84C289.529 191 297.404 185.886 300.938 177.948L335.221 100.948C341.699 86.3985 331.049 70 315.123 70H120.059C111.782 70 104.206 74.6458 100.452 82.0229Z" fill="#B5B5B5"/>
</g>
<defs>
<filter id="filter0_d_8_2512" x="6.84988" y="42" width="292.298" height="135" filterUnits="userSpaceOnUse" color-interpolation-filters="sRGB">
<feFlood flood-opacity="0" result="BackgroundImageFix"/>
<feColorMatrix in="SourceAlpha" type="matrix" values="0 0 0 0 0 0 0 0 0 0 0 0 0 0 0 0 0 0 127 0" result="hardAlpha"/>
<feOffset dy="3"/>
<feGaussianBlur stdDeviation="3.5"/>
<feComposite in2="hardAlpha" operator="out"/>
<feColorMatrix type="matrix" values="0 0 0 0 0 0 0 0 0 0 0 0 0 0 0 0 0 0 0.25 0"/>
<feBlend mode="normal" in2="BackgroundImageFix" result="effect1_dropShadow_8_2512"/>
<feBlend mode="normal" in="SourceGraphic" in2="effect1_dropShadow_8_2512" result="shape"/>
</filter>
<clipPath id="clip0_8_2512">
<rect width="320" height="280" fill="white" transform="translate(29)"/>
</clipPath>
</defs>
</svg>
