<svg width="330" height="280" viewBox="0 0 330 280" fill="none" xmlns="http://www.w3.org/2000/svg">
<g filter="url(#filter0_d_9_2513)">
<path d="M55.4519 61.0229L16.2712 138.023C8.82367 152.659 19.4566 170 35.8788 170H235.84C244.529 170 252.404 164.886 255.938 156.948L290.221 79.9483C296.699 65.3985 286.049 49 270.123 49H75.0595C66.7823 49 59.2056 53.6458 55.4519 61.0229Z" fill="#F4F4F4" fill-opacity="0.8" shape-rendering="crispEdges"/>
</g>
<mask id="mask0_9_2513" style="mask-type:alpha" maskUnits="userSpaceOnUse" x="10" y="0" width="320" height="280">
<g clip-path="url(#clip0_9_2513)">
<circle cx="12.5" cy="2.5" r="2.5" fill="#D2D6DB"/>
<circle cx="25.5" cy="2.5" r="2.5" fill="#D2D6DB"/>
<circle cx="38.5" cy="2.5" r="2.5" fill="#D2D6DB"/>
<circle cx="51.5" cy="2.5" r="2.5" fill="#D2D6DB"/>
<circle cx="64.5" cy="2.5" r="2.5" fill="#D2D6DB"/>
<circle cx="77.5" cy="2.5" r="2.5" fill="#D2D6DB"/>
<circle cx="90.5" cy="2.5" r="2.5" fill="#D2D6DB"/>
<circle cx="103.5" cy="2.5" r="2.5" fill="#D2D6DB"/>
<circle cx="116.5" cy="2.5" r="2.5" fill="#D2D6DB"/>
<circle cx="129.5" cy="2.5" r="2.5" fill="#D2D6DB"/>
<circle cx="142.5" cy="2.5" r="2.5" fill="#D2D6DB"/>
<circle cx="155.5" cy="2.5" r="2.5" fill="#D2D6DB"/>
<circle cx="168.5" cy="2.5" r="2.5" fill="#D2D6DB"/>
<circle cx="181.5" cy="2.5" r="2.5" fill="#D2D6DB"/>
<circle cx="194.5" cy="2.5" r="2.5" fill="#D2D6DB"/>
<circle cx="207.5" cy="2.5" r="2.5" fill="#D2D6DB"/>
<circle cx="220.5" cy="2.5" r="2.5" fill="#D2D6DB"/>
<circle cx="233.5" cy="2.5" r="2.5" fill="#D2D6DB"/>
<circle cx="246.5" cy="2.5" r="2.5" fill="#D2D6DB"/>
<circle cx="259.5" cy="2.5" r="2.5" fill="#D2D6DB"/>
<circle cx="272.5" cy="2.5" r="2.5" fill="#D2D6DB"/>
<circle cx="285.5" cy="2.5" r="2.5" fill="#D2D6DB"/>
<circle cx="298.5" cy="2.5" r="2.5" fill="#D2D6DB"/>
<circle cx="311.5" cy="2.5" r="2.5" fill="#D2D6DB"/>
<circle cx="324.5" cy="2.5" r="2.5" fill="#D2D6DB"/>
<circle cx="12.5" cy="15.5" r="2.5" fill="#D2D6DB"/>
<circle cx="25.5" cy="15.5" r="2.5" fill="#D2D6DB"/>
<circle cx="38.5" cy="15.5" r="2.5" fill="#D2D6DB"/>
<circle cx="51.5" cy="15.5" r="2.5" fill="#D2D6DB"/>
<circle cx="64.5" cy="15.5" r="2.5" fill="#D2D6DB"/>
<circle cx="77.5" cy="15.5" r="2.5" fill="#D2D6DB"/>
<circle cx="90.5" cy="15.5" r="2.5" fill="#D2D6DB"/>
<circle cx="103.5" cy="15.5" r="2.5" fill="#D2D6DB"/>
<circle cx="116.5" cy="15.5" r="2.5" fill="#D2D6DB"/>
<circle cx="129.5" cy="15.5" r="2.5" fill="#D2D6DB"/>
<circle cx="142.5" cy="15.5" r="2.5" fill="#D2D6DB"/>
<circle cx="155.5" cy="15.5" r="2.5" fill="#D2D6DB"/>
<circle cx="168.5" cy="15.5" r="2.5" fill="#D2D6DB"/>
<circle cx="181.5" cy="15.5" r="2.5" fill="#D2D6DB"/>
<circle cx="194.5" cy="15.5" r="2.5" fill="#D2D6DB"/>
<circle cx="207.5" cy="15.5" r="2.5" fill="#D2D6DB"/>
<circle cx="220.5" cy="15.5" r="2.5" fill="#D2D6DB"/>
<circle cx="233.5" cy="15.5" r="2.5" fill="#D2D6DB"/>
<circle cx="246.5" cy="15.5" r="2.5" fill="#D2D6DB"/>
<circle cx="259.5" cy="15.5" r="2.5" fill="#D2D6DB"/>
<circle cx="272.5" cy="15.5" r="2.5" fill="#D2D6DB"/>
<circle cx="285.5" cy="15.5" r="2.5" fill="#D2D6DB"/>
<circle cx="298.5" cy="15.5" r="2.5" fill="#D2D6DB"/>
<circle cx="311.5" cy="15.5" r="2.5" fill="#D2D6DB"/>
<circle cx="324.5" cy="15.5" r="2.5" fill="#D2D6DB"/>
<circle cx="12.5" cy="28.5" r="2.5" fill="#D2D6DB"/>
<circle cx="25.5" cy="28.5" r="2.5" fill="#D2D6DB"/>
<circle cx="38.5" cy="28.5" r="2.5" fill="#D2D6DB"/>
<circle cx="51.5" cy="28.5" r="2.5" fill="#D2D6DB"/>
<circle cx="64.5" cy="28.5" r="2.5" fill="#D2D6DB"/>
<circle cx="77.5" cy="28.5" r="2.5" fill="#D2D6DB"/>
<circle cx="90.5" cy="28.5" r="2.5" fill="#D2D6DB"/>
<circle cx="103.5" cy="28.5" r="2.5" fill="#D2D6DB"/>
<circle cx="116.5" cy="28.5" r="2.5" fill="#D2D6DB"/>
<circle cx="129.5" cy="28.5" r="2.5" fill="#D2D6DB"/>
<circle cx="142.5" cy="28.5" r="2.5" fill="#D2D6DB"/>
<circle cx="155.5" cy="28.5" r="2.5" fill="#D2D6DB"/>
<circle cx="168.5" cy="28.5" r="2.5" fill="#D2D6DB"/>
<circle cx="181.5" cy="28.5" r="2.5" fill="#D2D6DB"/>
<circle cx="194.5" cy="28.5" r="2.5" fill="#D2D6DB"/>
<circle cx="207.5" cy="28.5" r="2.5" fill="#D2D6DB"/>
<circle cx="220.5" cy="28.5" r="2.5" fill="#D2D6DB"/>
<circle cx="233.5" cy="28.5" r="2.5" fill="#D2D6DB"/>
<circle cx="246.5" cy="28.5" r="2.5" fill="#D2D6DB"/>
<circle cx="259.5" cy="28.5" r="2.5" fill="#D2D6DB"/>
<circle cx="272.5" cy="28.5" r="2.5" fill="#D2D6DB"/>
<circle cx="285.5" cy="28.5" r="2.5" fill="#D2D6DB"/>
<circle cx="298.5" cy="28.5" r="2.5" fill="#D2D6DB"/>
<circle cx="311.5" cy="28.5" r="2.5" fill="#D2D6DB"/>
<circle cx="324.5" cy="28.5" r="2.5" fill="#D2D6DB"/>
<circle cx="12.5" cy="41.5" r="2.5" fill="#D2D6DB"/>
<circle cx="25.5" cy="41.5" r="2.5" fill="#D2D6DB"/>
<circle cx="38.5" cy="41.5" r="2.5" fill="#D2D6DB"/>
<circle cx="51.5" cy="41.5" r="2.5" fill="#D2D6DB"/>
<circle cx="64.5" cy="41.5" r="2.5" fill="#D2D6DB"/>
<circle cx="77.5" cy="41.5" r="2.5" fill="#D2D6DB"/>
<circle cx="90.5" cy="41.5" r="2.5" fill="#D2D6DB"/>
<circle cx="103.5" cy="41.5" r="2.5" fill="#D2D6DB"/>
<circle cx="116.5" cy="41.5" r="2.5" fill="#D2D6DB"/>
<circle cx="129.5" cy="41.5" r="2.5" fill="#D2D6DB"/>
<circle cx="142.5" cy="41.5" r="2.5" fill="#D2D6DB"/>
<circle cx="155.5" cy="41.5" r="2.5" fill="#D2D6DB"/>
<circle cx="168.5" cy="41.5" r="2.5" fill="#D2D6DB"/>
<circle cx="181.5" cy="41.5" r="2.5" fill="#D2D6DB"/>
<circle cx="194.5" cy="41.5" r="2.5" fill="#D2D6DB"/>
<circle cx="207.5" cy="41.5" r="2.5" fill="#D2D6DB"/>
<circle cx="220.5" cy="41.5" r="2.5" fill="#D2D6DB"/>
<circle cx="233.5" cy="41.5" r="2.5" fill="#D2D6DB"/>
<circle cx="246.5" cy="41.5" r="2.5" fill="#D2D6DB"/>
<circle cx="259.5" cy="41.5" r="2.5" fill="#D2D6DB"/>
<circle cx="272.5" cy="41.5" r="2.5" fill="#D2D6DB"/>
<circle cx="285.5" cy="41.5" r="2.5" fill="#D2D6DB"/>
<circle cx="298.5" cy="41.5" r="2.5" fill="#D2D6DB"/>
<circle cx="311.5" cy="41.5" r="2.5" fill="#D2D6DB"/>
<circle cx="324.5" cy="41.5" r="2.5" fill="#D2D6DB"/>
<circle cx="12.5" cy="54.5" r="2.5" fill="#D2D6DB"/>
<circle cx="25.5" cy="54.5" r="2.5" fill="#D2D6DB"/>
<circle cx="38.5" cy="54.5" r="2.5" fill="#D2D6DB"/>
<circle cx="51.5" cy="54.5" r="2.5" fill="#D2D6DB"/>
<circle cx="64.5" cy="54.5" r="2.5" fill="#D2D6DB"/>
<circle cx="77.5" cy="54.5" r="2.5" fill="#D2D6DB"/>
<circle cx="90.5" cy="54.5" r="2.5" fill="#D2D6DB"/>
<circle cx="103.5" cy="54.5" r="2.5" fill="#D2D6DB"/>
<circle cx="116.5" cy="54.5" r="2.5" fill="#D2D6DB"/>
<circle cx="129.5" cy="54.5" r="2.5" fill="#D2D6DB"/>
<circle cx="142.5" cy="54.5" r="2.5" fill="#D2D6DB"/>
<circle cx="155.5" cy="54.5" r="2.5" fill="#D2D6DB"/>
<circle cx="168.5" cy="54.5" r="2.5" fill="#D2D6DB"/>
<circle cx="181.5" cy="54.5" r="2.5" fill="#D2D6DB"/>
<circle cx="194.5" cy="54.5" r="2.5" fill="#D2D6DB"/>
<circle cx="207.5" cy="54.5" r="2.5" fill="#D2D6DB"/>
<circle cx="220.5" cy="54.5" r="2.5" fill="#D2D6DB"/>
<circle cx="233.5" cy="54.5" r="2.5" fill="#D2D6DB"/>
<circle cx="246.5" cy="54.5" r="2.5" fill="#D2D6DB"/>
<circle cx="259.5" cy="54.5" r="2.5" fill="#D2D6DB"/>
<circle cx="272.5" cy="54.5" r="2.5" fill="#D2D6DB"/>
<circle cx="285.5" cy="54.5" r="2.5" fill="#D2D6DB"/>
<circle cx="298.5" cy="54.5" r="2.5" fill="#D2D6DB"/>
<circle cx="311.5" cy="54.5" r="2.5" fill="#D2D6DB"/>
<circle cx="324.5" cy="54.5" r="2.5" fill="#D2D6DB"/>
<circle cx="12.5" cy="67.5" r="2.5" fill="#D2D6DB"/>
<circle cx="25.5" cy="67.5" r="2.5" fill="#D2D6DB"/>
<circle cx="38.5" cy="67.5" r="2.5" fill="#D2D6DB"/>
<circle cx="51.5" cy="67.5" r="2.5" fill="#D2D6DB"/>
<circle cx="64.5" cy="67.5" r="2.5" fill="#D2D6DB"/>
<circle cx="77.5" cy="67.5" r="2.5" fill="#D2D6DB"/>
<circle cx="90.5" cy="67.5" r="2.5" fill="#D2D6DB"/>
<circle cx="103.5" cy="67.5" r="2.5" fill="#D2D6DB"/>
<circle cx="116.5" cy="67.5" r="2.5" fill="#D2D6DB"/>
<circle cx="129.5" cy="67.5" r="2.5" fill="#D2D6DB"/>
<circle cx="142.5" cy="67.5" r="2.5" fill="#D2D6DB"/>
<circle cx="155.5" cy="67.5" r="2.5" fill="#D2D6DB"/>
<circle cx="168.5" cy="67.5" r="2.5" fill="#D2D6DB"/>
<circle cx="181.5" cy="67.5" r="2.5" fill="#D2D6DB"/>
<circle cx="194.5" cy="67.5" r="2.5" fill="#D2D6DB"/>
<circle cx="207.5" cy="67.5" r="2.5" fill="#D2D6DB"/>
<circle cx="220.5" cy="67.5" r="2.5" fill="#D2D6DB"/>
<circle cx="233.5" cy="67.5" r="2.5" fill="#D2D6DB"/>
<circle cx="246.5" cy="67.5" r="2.5" fill="#D2D6DB"/>
<circle cx="259.5" cy="67.5" r="2.5" fill="#D2D6DB"/>
<circle cx="272.5" cy="67.5" r="2.5" fill="#D2D6DB"/>
<circle cx="285.5" cy="67.5" r="2.5" fill="#D2D6DB"/>
<circle cx="298.5" cy="67.5" r="2.5" fill="#D2D6DB"/>
<circle cx="311.5" cy="67.5" r="2.5" fill="#D2D6DB"/>
<circle cx="324.5" cy="67.5" r="2.5" fill="#D2D6DB"/>
<circle cx="12.5" cy="80.5" r="2.5" fill="#D2D6DB"/>
<circle cx="25.5" cy="80.5" r="2.5" fill="#D2D6DB"/>
<circle cx="38.5" cy="80.5" r="2.5" fill="#D2D6DB"/>
<circle cx="51.5" cy="80.5" r="2.5" fill="#D2D6DB"/>
<circle cx="64.5" cy="80.5" r="2.5" fill="#D2D6DB"/>
<circle cx="77.5" cy="80.5" r="2.5" fill="#D2D6DB"/>
<circle cx="90.5" cy="80.5" r="2.5" fill="#D2D6DB"/>
<circle cx="103.5" cy="80.5" r="2.5" fill="#D2D6DB"/>
<circle cx="116.5" cy="80.5" r="2.5" fill="#D2D6DB"/>
<circle cx="129.5" cy="80.5" r="2.5" fill="#D2D6DB"/>
<circle cx="142.5" cy="80.5" r="2.5" fill="#D2D6DB"/>
<circle cx="155.5" cy="80.5" r="2.5" fill="#D2D6DB"/>
<circle cx="168.5" cy="80.5" r="2.5" fill="#D2D6DB"/>
<circle cx="181.5" cy="80.5" r="2.5" fill="#D2D6DB"/>
<circle cx="194.5" cy="80.5" r="2.5" fill="#D2D6DB"/>
<circle cx="207.5" cy="80.5" r="2.5" fill="#D2D6DB"/>
<circle cx="220.5" cy="80.5" r="2.5" fill="#D2D6DB"/>
<circle cx="233.5" cy="80.5" r="2.5" fill="#D2D6DB"/>
<circle cx="246.5" cy="80.5" r="2.5" fill="#D2D6DB"/>
<circle cx="259.5" cy="80.5" r="2.5" fill="#D2D6DB"/>
<circle cx="272.5" cy="80.5" r="2.5" fill="#D2D6DB"/>
<circle cx="285.5" cy="80.5" r="2.5" fill="#D2D6DB"/>
<circle cx="298.5" cy="80.5" r="2.5" fill="#D2D6DB"/>
<circle cx="311.5" cy="80.5" r="2.5" fill="#D2D6DB"/>
<circle cx="324.5" cy="80.5" r="2.5" fill="#D2D6DB"/>
<circle cx="12.5" cy="93.5" r="2.5" fill="#D2D6DB"/>
<circle cx="25.5" cy="93.5" r="2.5" fill="#D2D6DB"/>
<circle cx="38.5" cy="93.5" r="2.5" fill="#D2D6DB"/>
<circle cx="51.5" cy="93.5" r="2.5" fill="#D2D6DB"/>
<circle cx="64.5" cy="93.5" r="2.5" fill="#D2D6DB"/>
<circle cx="77.5" cy="93.5" r="2.5" fill="#D2D6DB"/>
<circle cx="90.5" cy="93.5" r="2.5" fill="#D2D6DB"/>
<circle cx="103.5" cy="93.5" r="2.5" fill="#D2D6DB"/>
<circle cx="116.5" cy="93.5" r="2.5" fill="#D2D6DB"/>
<circle cx="129.5" cy="93.5" r="2.5" fill="#D2D6DB"/>
<circle cx="142.5" cy="93.5" r="2.5" fill="#D2D6DB"/>
<circle cx="155.5" cy="93.5" r="2.5" fill="#D2D6DB"/>
<circle cx="168.5" cy="93.5" r="2.5" fill="#D2D6DB"/>
<circle cx="181.5" cy="93.5" r="2.5" fill="#D2D6DB"/>
<circle cx="194.5" cy="93.5" r="2.5" fill="#D2D6DB"/>
<circle cx="207.5" cy="93.5" r="2.5" fill="#D2D6DB"/>
<circle cx="220.5" cy="93.5" r="2.5" fill="#D2D6DB"/>
<circle cx="233.5" cy="93.5" r="2.5" fill="#D2D6DB"/>
<circle cx="246.5" cy="93.5" r="2.5" fill="#D2D6DB"/>
<circle cx="259.5" cy="93.5" r="2.5" fill="#D2D6DB"/>
<circle cx="272.5" cy="93.5" r="2.5" fill="#D2D6DB"/>
<circle cx="285.5" cy="93.5" r="2.5" fill="#D2D6DB"/>
<circle cx="298.5" cy="93.5" r="2.5" fill="#D2D6DB"/>
<circle cx="311.5" cy="93.5" r="2.5" fill="#D2D6DB"/>
<circle cx="324.5" cy="93.5" r="2.5" fill="#D2D6DB"/>
<circle cx="12.5" cy="106.5" r="2.5" fill="#D2D6DB"/>
<circle cx="25.5" cy="106.5" r="2.5" fill="#D2D6DB"/>
<circle cx="38.5" cy="106.5" r="2.5" fill="#D2D6DB"/>
<circle cx="51.5" cy="106.5" r="2.5" fill="#D2D6DB"/>
<circle cx="64.5" cy="106.5" r="2.5" fill="#D2D6DB"/>
<circle cx="77.5" cy="106.5" r="2.5" fill="#D2D6DB"/>
<circle cx="90.5" cy="106.5" r="2.5" fill="#D2D6DB"/>
<circle cx="103.5" cy="106.5" r="2.5" fill="#D2D6DB"/>
<circle cx="116.5" cy="106.5" r="2.5" fill="#D2D6DB"/>
<circle cx="129.5" cy="106.5" r="2.5" fill="#D2D6DB"/>
<circle cx="142.5" cy="106.5" r="2.5" fill="#D2D6DB"/>
<circle cx="155.5" cy="106.5" r="2.5" fill="#D2D6DB"/>
<circle cx="168.5" cy="106.5" r="2.5" fill="#D2D6DB"/>
<circle cx="181.5" cy="106.5" r="2.5" fill="#D2D6DB"/>
<circle cx="194.5" cy="106.5" r="2.5" fill="#D2D6DB"/>
<circle cx="207.5" cy="106.5" r="2.5" fill="#D2D6DB"/>
<circle cx="220.5" cy="106.5" r="2.5" fill="#D2D6DB"/>
<circle cx="233.5" cy="106.5" r="2.5" fill="#D2D6DB"/>
<circle cx="246.5" cy="106.5" r="2.5" fill="#D2D6DB"/>
<circle cx="259.5" cy="106.5" r="2.5" fill="#D2D6DB"/>
<circle cx="272.5" cy="106.5" r="2.5" fill="#D2D6DB"/>
<circle cx="285.5" cy="106.5" r="2.5" fill="#D2D6DB"/>
<circle cx="298.5" cy="106.5" r="2.5" fill="#D2D6DB"/>
<circle cx="311.5" cy="106.5" r="2.5" fill="#D2D6DB"/>
<circle cx="324.5" cy="106.5" r="2.5" fill="#D2D6DB"/>
<circle cx="12.5" cy="119.5" r="2.5" fill="#D2D6DB"/>
<circle cx="25.5" cy="119.5" r="2.5" fill="#D2D6DB"/>
<circle cx="38.5" cy="119.5" r="2.5" fill="#D2D6DB"/>
<circle cx="51.5" cy="119.5" r="2.5" fill="#D2D6DB"/>
<circle cx="64.5" cy="119.5" r="2.5" fill="#D2D6DB"/>
<circle cx="77.5" cy="119.5" r="2.5" fill="#D2D6DB"/>
<circle cx="90.5" cy="119.5" r="2.5" fill="#D2D6DB"/>
<circle cx="103.5" cy="119.5" r="2.5" fill="#D2D6DB"/>
<circle cx="116.5" cy="119.5" r="2.5" fill="#D2D6DB"/>
<circle cx="129.5" cy="119.5" r="2.5" fill="#D2D6DB"/>
<circle cx="142.5" cy="119.5" r="2.5" fill="#D2D6DB"/>
<circle cx="155.5" cy="119.5" r="2.5" fill="#D2D6DB"/>
<circle cx="168.5" cy="119.5" r="2.5" fill="#D2D6DB"/>
<circle cx="181.5" cy="119.5" r="2.5" fill="#D2D6DB"/>
<circle cx="194.5" cy="119.5" r="2.5" fill="#D2D6DB"/>
<circle cx="207.5" cy="119.5" r="2.5" fill="#D2D6DB"/>
<circle cx="220.5" cy="119.5" r="2.5" fill="#D2D6DB"/>
<circle cx="233.5" cy="119.5" r="2.5" fill="#D2D6DB"/>
<circle cx="246.5" cy="119.5" r="2.5" fill="#D2D6DB"/>
<circle cx="259.5" cy="119.5" r="2.5" fill="#D2D6DB"/>
<circle cx="272.5" cy="119.5" r="2.5" fill="#D2D6DB"/>
<circle cx="285.5" cy="119.5" r="2.5" fill="#D2D6DB"/>
<circle cx="298.5" cy="119.5" r="2.5" fill="#D2D6DB"/>
<circle cx="311.5" cy="119.5" r="2.5" fill="#D2D6DB"/>
<circle cx="324.5" cy="119.5" r="2.5" fill="#D2D6DB"/>
<circle cx="12.5" cy="132.5" r="2.5" fill="#D2D6DB"/>
<circle cx="25.5" cy="132.5" r="2.5" fill="#D2D6DB"/>
<circle cx="38.5" cy="132.5" r="2.5" fill="#D2D6DB"/>
<circle cx="51.5" cy="132.5" r="2.5" fill="#D2D6DB"/>
<circle cx="64.5" cy="132.5" r="2.5" fill="#D2D6DB"/>
<circle cx="77.5" cy="132.5" r="2.5" fill="#D2D6DB"/>
<circle cx="90.5" cy="132.5" r="2.5" fill="#D2D6DB"/>
<circle cx="103.5" cy="132.5" r="2.5" fill="#D2D6DB"/>
<circle cx="116.5" cy="132.5" r="2.5" fill="#D2D6DB"/>
<circle cx="129.5" cy="132.5" r="2.5" fill="#D2D6DB"/>
<circle cx="142.5" cy="132.5" r="2.5" fill="#D2D6DB"/>
<circle cx="155.5" cy="132.5" r="2.5" fill="#D2D6DB"/>
<circle cx="168.5" cy="132.5" r="2.5" fill="#D2D6DB"/>
<circle cx="181.5" cy="132.5" r="2.5" fill="#D2D6DB"/>
<circle cx="194.5" cy="132.5" r="2.5" fill="#D2D6DB"/>
<circle cx="207.5" cy="132.5" r="2.5" fill="#D2D6DB"/>
<circle cx="220.5" cy="132.5" r="2.5" fill="#D2D6DB"/>
<circle cx="233.5" cy="132.5" r="2.5" fill="#D2D6DB"/>
<circle cx="246.5" cy="132.5" r="2.5" fill="#D2D6DB"/>
<circle cx="259.5" cy="132.5" r="2.5" fill="#D2D6DB"/>
<circle cx="272.5" cy="132.5" r="2.5" fill="#D2D6DB"/>
<circle cx="285.5" cy="132.5" r="2.5" fill="#D2D6DB"/>
<circle cx="298.5" cy="132.5" r="2.5" fill="#D2D6DB"/>
<circle cx="311.5" cy="132.5" r="2.5" fill="#D2D6DB"/>
<circle cx="324.5" cy="132.5" r="2.5" fill="#D2D6DB"/>
<circle cx="12.5" cy="145.5" r="2.5" fill="#D2D6DB"/>
<circle cx="25.5" cy="145.5" r="2.5" fill="#D2D6DB"/>
<circle cx="38.5" cy="145.5" r="2.5" fill="#D2D6DB"/>
<circle cx="51.5" cy="145.5" r="2.5" fill="#D2D6DB"/>
<circle cx="64.5" cy="145.5" r="2.5" fill="#D2D6DB"/>
<circle cx="77.5" cy="145.5" r="2.5" fill="#D2D6DB"/>
<circle cx="90.5" cy="145.5" r="2.5" fill="#D2D6DB"/>
<circle cx="103.5" cy="145.5" r="2.5" fill="#D2D6DB"/>
<circle cx="116.5" cy="145.5" r="2.5" fill="#D2D6DB"/>
<circle cx="129.5" cy="145.5" r="2.5" fill="#D2D6DB"/>
<circle cx="142.5" cy="145.5" r="2.5" fill="#D2D6DB"/>
<circle cx="155.5" cy="145.5" r="2.5" fill="#D2D6DB"/>
<circle cx="168.5" cy="145.5" r="2.5" fill="#D2D6DB"/>
<circle cx="181.5" cy="145.5" r="2.5" fill="#D2D6DB"/>
<circle cx="194.5" cy="145.5" r="2.5" fill="#D2D6DB"/>
<circle cx="207.5" cy="145.5" r="2.5" fill="#D2D6DB"/>
<circle cx="220.5" cy="145.5" r="2.5" fill="#D2D6DB"/>
<circle cx="233.5" cy="145.5" r="2.5" fill="#D2D6DB"/>
<circle cx="246.5" cy="145.5" r="2.5" fill="#D2D6DB"/>
<circle cx="259.5" cy="145.5" r="2.5" fill="#D2D6DB"/>
<circle cx="272.5" cy="145.5" r="2.5" fill="#D2D6DB"/>
<circle cx="285.5" cy="145.5" r="2.5" fill="#D2D6DB"/>
<circle cx="298.5" cy="145.5" r="2.5" fill="#D2D6DB"/>
<circle cx="311.5" cy="145.5" r="2.5" fill="#D2D6DB"/>
<circle cx="324.5" cy="145.5" r="2.5" fill="#D2D6DB"/>
<circle cx="12.5" cy="158.5" r="2.5" fill="#D2D6DB"/>
<circle cx="25.5" cy="158.5" r="2.5" fill="#D2D6DB"/>
<circle cx="38.5" cy="158.5" r="2.5" fill="#D2D6DB"/>
<circle cx="51.5" cy="158.5" r="2.5" fill="#D2D6DB"/>
<circle cx="64.5" cy="158.5" r="2.5" fill="#D2D6DB"/>
<circle cx="77.5" cy="158.5" r="2.5" fill="#D2D6DB"/>
<circle cx="90.5" cy="158.5" r="2.5" fill="#D2D6DB"/>
<circle cx="103.5" cy="158.5" r="2.5" fill="#D2D6DB"/>
<circle cx="116.5" cy="158.5" r="2.5" fill="#D2D6DB"/>
<circle cx="129.5" cy="158.5" r="2.5" fill="#D2D6DB"/>
<circle cx="142.5" cy="158.5" r="2.5" fill="#D2D6DB"/>
<circle cx="155.5" cy="158.5" r="2.5" fill="#D2D6DB"/>
<circle cx="168.5" cy="158.5" r="2.5" fill="#D2D6DB"/>
<circle cx="181.5" cy="158.5" r="2.5" fill="#D2D6DB"/>
<circle cx="194.5" cy="158.5" r="2.5" fill="#D2D6DB"/>
<circle cx="207.5" cy="158.5" r="2.5" fill="#D2D6DB"/>
<circle cx="220.5" cy="158.5" r="2.5" fill="#D2D6DB"/>
<circle cx="233.5" cy="158.5" r="2.5" fill="#D2D6DB"/>
<circle cx="246.5" cy="158.5" r="2.5" fill="#D2D6DB"/>
<circle cx="259.5" cy="158.5" r="2.5" fill="#D2D6DB"/>
<circle cx="272.5" cy="158.5" r="2.5" fill="#D2D6DB"/>
<circle cx="285.5" cy="158.5" r="2.5" fill="#D2D6DB"/>
<circle cx="298.5" cy="158.5" r="2.5" fill="#D2D6DB"/>
<circle cx="311.5" cy="158.5" r="2.5" fill="#D2D6DB"/>
<circle cx="324.5" cy="158.5" r="2.5" fill="#D2D6DB"/>
<circle cx="12.5" cy="171.5" r="2.5" fill="#D2D6DB"/>
<circle cx="25.5" cy="171.5" r="2.5" fill="#D2D6DB"/>
<circle cx="38.5" cy="171.5" r="2.5" fill="#D2D6DB"/>
<circle cx="51.5" cy="171.5" r="2.5" fill="#D2D6DB"/>
<circle cx="64.5" cy="171.5" r="2.5" fill="#D2D6DB"/>
<circle cx="77.5" cy="171.5" r="2.5" fill="#D2D6DB"/>
<circle cx="90.5" cy="171.5" r="2.5" fill="#D2D6DB"/>
<circle cx="103.5" cy="171.5" r="2.5" fill="#D2D6DB"/>
<circle cx="116.5" cy="171.5" r="2.5" fill="#D2D6DB"/>
<circle cx="129.5" cy="171.5" r="2.5" fill="#D2D6DB"/>
<circle cx="142.5" cy="171.5" r="2.5" fill="#D2D6DB"/>
<circle cx="155.5" cy="171.5" r="2.5" fill="#D2D6DB"/>
<circle cx="168.5" cy="171.5" r="2.5" fill="#D2D6DB"/>
<circle cx="181.5" cy="171.5" r="2.5" fill="#D2D6DB"/>
<circle cx="194.5" cy="171.5" r="2.5" fill="#D2D6DB"/>
<circle cx="207.5" cy="171.5" r="2.5" fill="#D2D6DB"/>
<circle cx="220.5" cy="171.5" r="2.5" fill="#D2D6DB"/>
<circle cx="233.5" cy="171.5" r="2.5" fill="#D2D6DB"/>
<circle cx="246.5" cy="171.5" r="2.5" fill="#D2D6DB"/>
<circle cx="259.5" cy="171.5" r="2.5" fill="#D2D6DB"/>
<circle cx="272.5" cy="171.5" r="2.5" fill="#D2D6DB"/>
<circle cx="285.5" cy="171.5" r="2.5" fill="#D2D6DB"/>
<circle cx="298.5" cy="171.5" r="2.5" fill="#D2D6DB"/>
<circle cx="311.5" cy="171.5" r="2.5" fill="#D2D6DB"/>
<circle cx="324.5" cy="171.5" r="2.5" fill="#D2D6DB"/>
<circle cx="12.5" cy="184.5" r="2.5" fill="#D2D6DB"/>
<circle cx="25.5" cy="184.5" r="2.5" fill="#D2D6DB"/>
<circle cx="38.5" cy="184.5" r="2.5" fill="#D2D6DB"/>
<circle cx="51.5" cy="184.5" r="2.5" fill="#D2D6DB"/>
<circle cx="64.5" cy="184.5" r="2.5" fill="#D2D6DB"/>
<circle cx="77.5" cy="184.5" r="2.5" fill="#D2D6DB"/>
<circle cx="90.5" cy="184.5" r="2.5" fill="#D2D6DB"/>
<circle cx="103.5" cy="184.5" r="2.5" fill="#D2D6DB"/>
<circle cx="116.5" cy="184.5" r="2.5" fill="#D2D6DB"/>
<circle cx="129.5" cy="184.5" r="2.5" fill="#D2D6DB"/>
<circle cx="142.5" cy="184.5" r="2.5" fill="#D2D6DB"/>
<circle cx="155.5" cy="184.5" r="2.5" fill="#D2D6DB"/>
<circle cx="168.5" cy="184.5" r="2.5" fill="#D2D6DB"/>
<circle cx="181.5" cy="184.5" r="2.5" fill="#D2D6DB"/>
<circle cx="194.5" cy="184.5" r="2.5" fill="#D2D6DB"/>
<circle cx="207.5" cy="184.5" r="2.5" fill="#D2D6DB"/>
<circle cx="220.5" cy="184.5" r="2.5" fill="#D2D6DB"/>
<circle cx="233.5" cy="184.5" r="2.5" fill="#D2D6DB"/>
<circle cx="246.5" cy="184.5" r="2.5" fill="#D2D6DB"/>
<circle cx="259.5" cy="184.5" r="2.5" fill="#D2D6DB"/>
<circle cx="272.5" cy="184.5" r="2.5" fill="#D2D6DB"/>
<circle cx="285.5" cy="184.5" r="2.5" fill="#D2D6DB"/>
<circle cx="298.5" cy="184.5" r="2.5" fill="#D2D6DB"/>
<circle cx="311.5" cy="184.5" r="2.5" fill="#D2D6DB"/>
<circle cx="324.5" cy="184.5" r="2.5" fill="#D2D6DB"/>
<circle cx="12.5" cy="197.5" r="2.5" fill="#D2D6DB"/>
<circle cx="25.5" cy="197.5" r="2.5" fill="#D2D6DB"/>
<circle cx="38.5" cy="197.5" r="2.5" fill="#D2D6DB"/>
<circle cx="51.5" cy="197.5" r="2.5" fill="#D2D6DB"/>
<circle cx="64.5" cy="197.5" r="2.5" fill="#D2D6DB"/>
<circle cx="77.5" cy="197.5" r="2.5" fill="#D2D6DB"/>
<circle cx="90.5" cy="197.5" r="2.5" fill="#D2D6DB"/>
<circle cx="103.5" cy="197.5" r="2.5" fill="#D2D6DB"/>
<circle cx="116.5" cy="197.5" r="2.5" fill="#D2D6DB"/>
<circle cx="129.5" cy="197.5" r="2.5" fill="#D2D6DB"/>
<circle cx="142.5" cy="197.5" r="2.5" fill="#D2D6DB"/>
<circle cx="155.5" cy="197.5" r="2.5" fill="#D2D6DB"/>
<circle cx="168.5" cy="197.5" r="2.5" fill="#D2D6DB"/>
<circle cx="181.5" cy="197.5" r="2.5" fill="#D2D6DB"/>
<circle cx="194.5" cy="197.5" r="2.5" fill="#D2D6DB"/>
<circle cx="207.5" cy="197.5" r="2.5" fill="#D2D6DB"/>
<circle cx="220.5" cy="197.5" r="2.5" fill="#D2D6DB"/>
<circle cx="233.5" cy="197.5" r="2.5" fill="#D2D6DB"/>
<circle cx="246.5" cy="197.5" r="2.5" fill="#D2D6DB"/>
<circle cx="259.5" cy="197.5" r="2.5" fill="#D2D6DB"/>
<circle cx="272.5" cy="197.5" r="2.5" fill="#D2D6DB"/>
<circle cx="285.5" cy="197.5" r="2.5" fill="#D2D6DB"/>
<circle cx="298.5" cy="197.5" r="2.5" fill="#D2D6DB"/>
<circle cx="311.5" cy="197.5" r="2.5" fill="#D2D6DB"/>
<circle cx="324.5" cy="197.5" r="2.5" fill="#D2D6DB"/>
<circle cx="12.5" cy="210.5" r="2.5" fill="#D2D6DB"/>
<circle cx="25.5" cy="210.5" r="2.5" fill="#D2D6DB"/>
<circle cx="38.5" cy="210.5" r="2.5" fill="#D2D6DB"/>
<circle cx="51.5" cy="210.5" r="2.5" fill="#D2D6DB"/>
<circle cx="64.5" cy="210.5" r="2.5" fill="#D2D6DB"/>
<circle cx="77.5" cy="210.5" r="2.5" fill="#D2D6DB"/>
<circle cx="90.5" cy="210.5" r="2.5" fill="#D2D6DB"/>
<circle cx="103.5" cy="210.5" r="2.5" fill="#D2D6DB"/>
<circle cx="116.5" cy="210.5" r="2.5" fill="#D2D6DB"/>
<circle cx="129.5" cy="210.5" r="2.5" fill="#D2D6DB"/>
<circle cx="142.5" cy="210.5" r="2.5" fill="#D2D6DB"/>
<circle cx="155.5" cy="210.5" r="2.5" fill="#D2D6DB"/>
<circle cx="168.5" cy="210.5" r="2.5" fill="#D2D6DB"/>
<circle cx="181.5" cy="210.5" r="2.5" fill="#D2D6DB"/>
<circle cx="194.5" cy="210.5" r="2.5" fill="#D2D6DB"/>
<circle cx="207.5" cy="210.5" r="2.5" fill="#D2D6DB"/>
<circle cx="220.5" cy="210.5" r="2.5" fill="#D2D6DB"/>
<circle cx="233.5" cy="210.5" r="2.5" fill="#D2D6DB"/>
<circle cx="246.5" cy="210.5" r="2.5" fill="#D2D6DB"/>
<circle cx="259.5" cy="210.5" r="2.5" fill="#D2D6DB"/>
<circle cx="272.5" cy="210.5" r="2.5" fill="#D2D6DB"/>
<circle cx="285.5" cy="210.5" r="2.5" fill="#D2D6DB"/>
<circle cx="298.5" cy="210.5" r="2.5" fill="#D2D6DB"/>
<circle cx="311.5" cy="210.5" r="2.5" fill="#D2D6DB"/>
<circle cx="324.5" cy="210.5" r="2.5" fill="#D2D6DB"/>
<circle cx="12.5" cy="223.5" r="2.5" fill="#D2D6DB"/>
<circle cx="25.5" cy="223.5" r="2.5" fill="#D2D6DB"/>
<circle cx="38.5" cy="223.5" r="2.5" fill="#D2D6DB"/>
<circle cx="51.5" cy="223.5" r="2.5" fill="#D2D6DB"/>
<circle cx="64.5" cy="223.5" r="2.5" fill="#D2D6DB"/>
<circle cx="77.5" cy="223.5" r="2.5" fill="#D2D6DB"/>
<circle cx="90.5" cy="223.5" r="2.5" fill="#D2D6DB"/>
<circle cx="103.5" cy="223.5" r="2.5" fill="#D2D6DB"/>
<circle cx="116.5" cy="223.5" r="2.5" fill="#D2D6DB"/>
<circle cx="129.5" cy="223.5" r="2.5" fill="#D2D6DB"/>
<circle cx="142.5" cy="223.5" r="2.5" fill="#D2D6DB"/>
<circle cx="155.5" cy="223.5" r="2.5" fill="#D2D6DB"/>
<circle cx="168.5" cy="223.5" r="2.5" fill="#D2D6DB"/>
<circle cx="181.5" cy="223.5" r="2.5" fill="#D2D6DB"/>
<circle cx="194.5" cy="223.5" r="2.5" fill="#D2D6DB"/>
<circle cx="207.5" cy="223.5" r="2.5" fill="#D2D6DB"/>
<circle cx="220.5" cy="223.5" r="2.5" fill="#D2D6DB"/>
<circle cx="233.5" cy="223.5" r="2.5" fill="#D2D6DB"/>
<circle cx="246.5" cy="223.5" r="2.5" fill="#D2D6DB"/>
<circle cx="259.5" cy="223.5" r="2.5" fill="#D2D6DB"/>
<circle cx="272.5" cy="223.5" r="2.5" fill="#D2D6DB"/>
<circle cx="285.5" cy="223.5" r="2.5" fill="#D2D6DB"/>
<circle cx="298.5" cy="223.5" r="2.5" fill="#D2D6DB"/>
<circle cx="311.5" cy="223.5" r="2.5" fill="#D2D6DB"/>
<circle cx="324.5" cy="223.5" r="2.5" fill="#D2D6DB"/>
<circle cx="12.5" cy="236.5" r="2.5" fill="#D2D6DB"/>
<circle cx="25.5" cy="236.5" r="2.5" fill="#D2D6DB"/>
<circle cx="38.5" cy="236.5" r="2.5" fill="#D2D6DB"/>
<circle cx="51.5" cy="236.5" r="2.5" fill="#D2D6DB"/>
<circle cx="64.5" cy="236.5" r="2.5" fill="#D2D6DB"/>
<circle cx="77.5" cy="236.5" r="2.5" fill="#D2D6DB"/>
<circle cx="90.5" cy="236.5" r="2.5" fill="#D2D6DB"/>
<circle cx="103.5" cy="236.5" r="2.5" fill="#D2D6DB"/>
<circle cx="116.5" cy="236.5" r="2.5" fill="#D2D6DB"/>
<circle cx="129.5" cy="236.5" r="2.5" fill="#D2D6DB"/>
<circle cx="142.5" cy="236.5" r="2.5" fill="#D2D6DB"/>
<circle cx="155.5" cy="236.5" r="2.5" fill="#D2D6DB"/>
<circle cx="168.5" cy="236.5" r="2.5" fill="#D2D6DB"/>
<circle cx="181.5" cy="236.5" r="2.5" fill="#D2D6DB"/>
<circle cx="194.5" cy="236.5" r="2.5" fill="#D2D6DB"/>
<circle cx="207.5" cy="236.5" r="2.5" fill="#D2D6DB"/>
<circle cx="220.5" cy="236.5" r="2.5" fill="#D2D6DB"/>
<circle cx="233.5" cy="236.5" r="2.5" fill="#D2D6DB"/>
<circle cx="246.5" cy="236.5" r="2.5" fill="#D2D6DB"/>
<circle cx="259.5" cy="236.5" r="2.5" fill="#D2D6DB"/>
<circle cx="272.5" cy="236.5" r="2.5" fill="#D2D6DB"/>
<circle cx="285.5" cy="236.5" r="2.5" fill="#D2D6DB"/>
<circle cx="298.5" cy="236.5" r="2.5" fill="#D2D6DB"/>
<circle cx="311.5" cy="236.5" r="2.5" fill="#D2D6DB"/>
<circle cx="324.5" cy="236.5" r="2.5" fill="#D2D6DB"/>
<circle cx="12.5" cy="249.5" r="2.5" fill="#D2D6DB"/>
<circle cx="25.5" cy="249.5" r="2.5" fill="#D2D6DB"/>
<circle cx="38.5" cy="249.5" r="2.5" fill="#D2D6DB"/>
<circle cx="51.5" cy="249.5" r="2.5" fill="#D2D6DB"/>
<circle cx="64.5" cy="249.5" r="2.5" fill="#D2D6DB"/>
<circle cx="77.5" cy="249.5" r="2.5" fill="#D2D6DB"/>
<circle cx="90.5" cy="249.5" r="2.5" fill="#D2D6DB"/>
<circle cx="103.5" cy="249.5" r="2.5" fill="#D2D6DB"/>
<circle cx="116.5" cy="249.5" r="2.5" fill="#D2D6DB"/>
<circle cx="129.5" cy="249.5" r="2.5" fill="#D2D6DB"/>
<circle cx="142.5" cy="249.5" r="2.5" fill="#D2D6DB"/>
<circle cx="155.5" cy="249.5" r="2.5" fill="#D2D6DB"/>
<circle cx="168.5" cy="249.5" r="2.5" fill="#D2D6DB"/>
<circle cx="181.5" cy="249.5" r="2.5" fill="#D2D6DB"/>
<circle cx="194.5" cy="249.5" r="2.5" fill="#D2D6DB"/>
<circle cx="207.5" cy="249.5" r="2.5" fill="#D2D6DB"/>
<circle cx="220.5" cy="249.5" r="2.5" fill="#D2D6DB"/>
<circle cx="233.5" cy="249.5" r="2.5" fill="#D2D6DB"/>
<circle cx="246.5" cy="249.5" r="2.5" fill="#D2D6DB"/>
<circle cx="259.5" cy="249.5" r="2.5" fill="#D2D6DB"/>
<circle cx="272.5" cy="249.5" r="2.5" fill="#D2D6DB"/>
<circle cx="285.5" cy="249.5" r="2.5" fill="#D2D6DB"/>
<circle cx="298.5" cy="249.5" r="2.5" fill="#D2D6DB"/>
<circle cx="311.5" cy="249.5" r="2.5" fill="#D2D6DB"/>
<circle cx="324.5" cy="249.5" r="2.5" fill="#D2D6DB"/>
<circle cx="12.5" cy="262.5" r="2.5" fill="#D2D6DB"/>
<circle cx="25.5" cy="262.5" r="2.5" fill="#D2D6DB"/>
<circle cx="38.5" cy="262.5" r="2.5" fill="#D2D6DB"/>
<circle cx="51.5" cy="262.5" r="2.5" fill="#D2D6DB"/>
<circle cx="64.5" cy="262.5" r="2.5" fill="#D2D6DB"/>
<circle cx="77.5" cy="262.5" r="2.5" fill="#D2D6DB"/>
<circle cx="90.5" cy="262.5" r="2.5" fill="#D2D6DB"/>
<circle cx="103.5" cy="262.5" r="2.5" fill="#D2D6DB"/>
<circle cx="116.5" cy="262.5" r="2.5" fill="#D2D6DB"/>
<circle cx="129.5" cy="262.5" r="2.5" fill="#D2D6DB"/>
<circle cx="142.5" cy="262.5" r="2.5" fill="#D2D6DB"/>
<circle cx="155.5" cy="262.5" r="2.5" fill="#D2D6DB"/>
<circle cx="168.5" cy="262.5" r="2.5" fill="#D2D6DB"/>
<circle cx="181.5" cy="262.5" r="2.5" fill="#D2D6DB"/>
<circle cx="194.5" cy="262.5" r="2.5" fill="#D2D6DB"/>
<circle cx="207.5" cy="262.5" r="2.5" fill="#D2D6DB"/>
<circle cx="220.5" cy="262.5" r="2.5" fill="#D2D6DB"/>
<circle cx="233.5" cy="262.5" r="2.5" fill="#D2D6DB"/>
<circle cx="246.5" cy="262.5" r="2.5" fill="#D2D6DB"/>
<circle cx="259.5" cy="262.5" r="2.5" fill="#D2D6DB"/>
<circle cx="272.5" cy="262.5" r="2.5" fill="#D2D6DB"/>
<circle cx="285.5" cy="262.5" r="2.5" fill="#D2D6DB"/>
<circle cx="298.5" cy="262.5" r="2.5" fill="#D2D6DB"/>
<circle cx="311.5" cy="262.5" r="2.5" fill="#D2D6DB"/>
<circle cx="324.5" cy="262.5" r="2.5" fill="#D2D6DB"/>
<circle cx="12.5" cy="275.5" r="2.5" fill="#D2D6DB"/>
<circle cx="25.5" cy="275.5" r="2.5" fill="#D2D6DB"/>
<circle cx="38.5" cy="275.5" r="2.5" fill="#D2D6DB"/>
<circle cx="51.5" cy="275.5" r="2.5" fill="#D2D6DB"/>
<circle cx="64.5" cy="275.5" r="2.5" fill="#D2D6DB"/>
<circle cx="77.5" cy="275.5" r="2.5" fill="#D2D6DB"/>
<circle cx="90.5" cy="275.5" r="2.5" fill="#D2D6DB"/>
<circle cx="103.5" cy="275.5" r="2.5" fill="#D2D6DB"/>
<circle cx="116.5" cy="275.5" r="2.5" fill="#D2D6DB"/>
<circle cx="129.5" cy="275.5" r="2.5" fill="#D2D6DB"/>
<circle cx="142.5" cy="275.5" r="2.5" fill="#D2D6DB"/>
<circle cx="155.5" cy="275.5" r="2.5" fill="#D2D6DB"/>
<circle cx="168.5" cy="275.5" r="2.5" fill="#D2D6DB"/>
<circle cx="181.5" cy="275.5" r="2.5" fill="#D2D6DB"/>
<circle cx="194.5" cy="275.5" r="2.5" fill="#D2D6DB"/>
<circle cx="207.5" cy="275.5" r="2.5" fill="#D2D6DB"/>
<circle cx="220.5" cy="275.5" r="2.5" fill="#D2D6DB"/>
<circle cx="233.5" cy="275.5" r="2.5" fill="#D2D6DB"/>
<circle cx="246.5" cy="275.5" r="2.5" fill="#D2D6DB"/>
<circle cx="259.5" cy="275.5" r="2.5" fill="#D2D6DB"/>
<circle cx="272.5" cy="275.5" r="2.5" fill="#D2D6DB"/>
<circle cx="285.5" cy="275.5" r="2.5" fill="#D2D6DB"/>
<circle cx="298.5" cy="275.5" r="2.5" fill="#D2D6DB"/>
<circle cx="311.5" cy="275.5" r="2.5" fill="#D2D6DB"/>
<circle cx="324.5" cy="275.5" r="2.5" fill="#D2D6DB"/>
</g>
</mask>
<g mask="url(#mask0_9_2513)">
<path d="M81.4519 82.0229L42.2712 159.023C34.8237 173.659 45.4566 191 61.8788 191H261.84C270.529 191 278.404 185.886 281.938 177.948L316.221 100.948C322.699 86.3985 312.049 70 296.123 70H101.059C92.7823 70 85.2056 74.6458 81.4519 82.0229Z" fill="#B5B5B5"/>
</g>
<defs>
<filter id="filter0_d_9_2513" x="6.84988" y="45" width="292.298" height="135" filterUnits="userSpaceOnUse" color-interpolation-filters="sRGB">
<feFlood flood-opacity="0" result="BackgroundImageFix"/>
<feColorMatrix in="SourceAlpha" type="matrix" values="0 0 0 0 0 0 0 0 0 0 0 0 0 0 0 0 0 0 127 0" result="hardAlpha"/>
<feOffset dy="3"/>
<feGaussianBlur stdDeviation="3.5"/>
<feComposite in2="hardAlpha" operator="out"/>
<feColorMatrix type="matrix" values="0 0 0 0 0 0 0 0 0 0 0 0 0 0 0 0 0 0 0.25 0"/>
<feBlend mode="normal" in2="BackgroundImageFix" result="effect1_dropShadow_9_2513"/>
<feBlend mode="normal" in="SourceGraphic" in2="effect1_dropShadow_9_2513" result="shape"/>
</filter>
<clipPath id="clip0_9_2513">
<rect width="320" height="280" fill="white" transform="translate(10)"/>
</clipPath>
</defs>
</svg>
