<svg width="338" height="213" viewBox="0 0 338 213" fill="none" xmlns="http://www.w3.org/2000/svg">
<g filter="url(#filter0_d_74_963)">
<path d="M89.4519 81.0229L50.2712 158.023C42.8237 172.659 53.4566 190 69.8788 190H269.84C278.529 190 286.404 184.886 289.938 176.948L324.221 99.9483C330.699 85.3985 320.049 69 304.123 69H109.059C100.782 69 93.2056 73.6458 89.4519 81.0229Z" fill="#F4F4F4" fill-opacity="0.8" shape-rendering="crispEdges"/>
</g>
<mask id="mask0_74_963" style="mask-type:alpha" maskUnits="userSpaceOnUse" x="0" y="0" width="307" height="213">
<g clip-path="url(#clip0_74_963)">
<circle cx="2.5" cy="2.5" r="2.5" fill="#D2D6DB"/>
<circle cx="15.5" cy="2.5" r="2.5" fill="#D2D6DB"/>
<circle cx="28.5" cy="2.5" r="2.5" fill="#D2D6DB"/>
<circle cx="41.5" cy="2.5" r="2.5" fill="#D2D6DB"/>
<circle cx="54.5" cy="2.5" r="2.5" fill="#D2D6DB"/>
<circle cx="67.5" cy="2.5" r="2.5" fill="#D2D6DB"/>
<circle cx="80.5" cy="2.5" r="2.5" fill="#D2D6DB"/>
<circle cx="93.5" cy="2.5" r="2.5" fill="#D2D6DB"/>
<circle cx="106.5" cy="2.5" r="2.5" fill="#D2D6DB"/>
<circle cx="119.5" cy="2.5" r="2.5" fill="#D2D6DB"/>
<circle cx="132.5" cy="2.5" r="2.5" fill="#D2D6DB"/>
<circle cx="145.5" cy="2.5" r="2.5" fill="#D2D6DB"/>
<circle cx="158.5" cy="2.5" r="2.5" fill="#D2D6DB"/>
<circle cx="171.5" cy="2.5" r="2.5" fill="#D2D6DB"/>
<circle cx="184.5" cy="2.5" r="2.5" fill="#D2D6DB"/>
<circle cx="197.5" cy="2.5" r="2.5" fill="#D2D6DB"/>
<circle cx="210.5" cy="2.5" r="2.5" fill="#D2D6DB"/>
<circle cx="223.5" cy="2.5" r="2.5" fill="#D2D6DB"/>
<circle cx="236.5" cy="2.5" r="2.5" fill="#D2D6DB"/>
<circle cx="249.5" cy="2.5" r="2.5" fill="#D2D6DB"/>
<circle cx="262.5" cy="2.5" r="2.5" fill="#D2D6DB"/>
<circle cx="275.5" cy="2.5" r="2.5" fill="#D2D6DB"/>
<circle cx="288.5" cy="2.5" r="2.5" fill="#D2D6DB"/>
<circle cx="301.5" cy="2.5" r="2.5" fill="#D2D6DB"/>
<circle cx="2.5" cy="15.5" r="2.5" fill="#D2D6DB"/>
<circle cx="15.5" cy="15.5" r="2.5" fill="#D2D6DB"/>
<circle cx="28.5" cy="15.5" r="2.5" fill="#D2D6DB"/>
<circle cx="41.5" cy="15.5" r="2.5" fill="#D2D6DB"/>
<circle cx="54.5" cy="15.5" r="2.5" fill="#D2D6DB"/>
<circle cx="67.5" cy="15.5" r="2.5" fill="#D2D6DB"/>
<circle cx="80.5" cy="15.5" r="2.5" fill="#D2D6DB"/>
<circle cx="93.5" cy="15.5" r="2.5" fill="#D2D6DB"/>
<circle cx="106.5" cy="15.5" r="2.5" fill="#D2D6DB"/>
<circle cx="119.5" cy="15.5" r="2.5" fill="#D2D6DB"/>
<circle cx="132.5" cy="15.5" r="2.5" fill="#D2D6DB"/>
<circle cx="145.5" cy="15.5" r="2.5" fill="#D2D6DB"/>
<circle cx="158.5" cy="15.5" r="2.5" fill="#D2D6DB"/>
<circle cx="171.5" cy="15.5" r="2.5" fill="#D2D6DB"/>
<circle cx="184.5" cy="15.5" r="2.5" fill="#D2D6DB"/>
<circle cx="197.5" cy="15.5" r="2.5" fill="#D2D6DB"/>
<circle cx="210.5" cy="15.5" r="2.5" fill="#D2D6DB"/>
<circle cx="223.5" cy="15.5" r="2.5" fill="#D2D6DB"/>
<circle cx="236.5" cy="15.5" r="2.5" fill="#D2D6DB"/>
<circle cx="249.5" cy="15.5" r="2.5" fill="#D2D6DB"/>
<circle cx="262.5" cy="15.5" r="2.5" fill="#D2D6DB"/>
<circle cx="275.5" cy="15.5" r="2.5" fill="#D2D6DB"/>
<circle cx="288.5" cy="15.5" r="2.5" fill="#D2D6DB"/>
<circle cx="301.5" cy="15.5" r="2.5" fill="#D2D6DB"/>
<circle cx="2.5" cy="28.5" r="2.5" fill="#D2D6DB"/>
<circle cx="15.5" cy="28.5" r="2.5" fill="#D2D6DB"/>
<circle cx="28.5" cy="28.5" r="2.5" fill="#D2D6DB"/>
<circle cx="41.5" cy="28.5" r="2.5" fill="#D2D6DB"/>
<circle cx="54.5" cy="28.5" r="2.5" fill="#D2D6DB"/>
<circle cx="67.5" cy="28.5" r="2.5" fill="#D2D6DB"/>
<circle cx="80.5" cy="28.5" r="2.5" fill="#D2D6DB"/>
<circle cx="93.5" cy="28.5" r="2.5" fill="#D2D6DB"/>
<circle cx="106.5" cy="28.5" r="2.5" fill="#D2D6DB"/>
<circle cx="119.5" cy="28.5" r="2.5" fill="#D2D6DB"/>
<circle cx="132.5" cy="28.5" r="2.5" fill="#D2D6DB"/>
<circle cx="145.5" cy="28.5" r="2.5" fill="#D2D6DB"/>
<circle cx="158.5" cy="28.5" r="2.5" fill="#D2D6DB"/>
<circle cx="171.5" cy="28.5" r="2.5" fill="#D2D6DB"/>
<circle cx="184.5" cy="28.5" r="2.5" fill="#D2D6DB"/>
<circle cx="197.5" cy="28.5" r="2.5" fill="#D2D6DB"/>
<circle cx="210.5" cy="28.5" r="2.5" fill="#D2D6DB"/>
<circle cx="223.5" cy="28.5" r="2.5" fill="#D2D6DB"/>
<circle cx="236.5" cy="28.5" r="2.5" fill="#D2D6DB"/>
<circle cx="249.5" cy="28.5" r="2.5" fill="#D2D6DB"/>
<circle cx="262.5" cy="28.5" r="2.5" fill="#D2D6DB"/>
<circle cx="275.5" cy="28.5" r="2.5" fill="#D2D6DB"/>
<circle cx="288.5" cy="28.5" r="2.5" fill="#D2D6DB"/>
<circle cx="301.5" cy="28.5" r="2.5" fill="#D2D6DB"/>
<circle cx="2.5" cy="41.5" r="2.5" fill="#D2D6DB"/>
<circle cx="15.5" cy="41.5" r="2.5" fill="#D2D6DB"/>
<circle cx="28.5" cy="41.5" r="2.5" fill="#D2D6DB"/>
<circle cx="41.5" cy="41.5" r="2.5" fill="#D2D6DB"/>
<circle cx="54.5" cy="41.5" r="2.5" fill="#D2D6DB"/>
<circle cx="67.5" cy="41.5" r="2.5" fill="#D2D6DB"/>
<circle cx="80.5" cy="41.5" r="2.5" fill="#D2D6DB"/>
<circle cx="93.5" cy="41.5" r="2.5" fill="#D2D6DB"/>
<circle cx="106.5" cy="41.5" r="2.5" fill="#D2D6DB"/>
<circle cx="119.5" cy="41.5" r="2.5" fill="#D2D6DB"/>
<circle cx="132.5" cy="41.5" r="2.5" fill="#D2D6DB"/>
<circle cx="145.5" cy="41.5" r="2.5" fill="#D2D6DB"/>
<circle cx="158.5" cy="41.5" r="2.5" fill="#D2D6DB"/>
<circle cx="171.5" cy="41.5" r="2.5" fill="#D2D6DB"/>
<circle cx="184.5" cy="41.5" r="2.5" fill="#D2D6DB"/>
<circle cx="197.5" cy="41.5" r="2.5" fill="#D2D6DB"/>
<circle cx="210.5" cy="41.5" r="2.5" fill="#D2D6DB"/>
<circle cx="223.5" cy="41.5" r="2.5" fill="#D2D6DB"/>
<circle cx="236.5" cy="41.5" r="2.5" fill="#D2D6DB"/>
<circle cx="249.5" cy="41.5" r="2.5" fill="#D2D6DB"/>
<circle cx="262.5" cy="41.5" r="2.5" fill="#D2D6DB"/>
<circle cx="275.5" cy="41.5" r="2.5" fill="#D2D6DB"/>
<circle cx="288.5" cy="41.5" r="2.5" fill="#D2D6DB"/>
<circle cx="301.5" cy="41.5" r="2.5" fill="#D2D6DB"/>
<circle cx="2.5" cy="54.5" r="2.5" fill="#D2D6DB"/>
<circle cx="15.5" cy="54.5" r="2.5" fill="#D2D6DB"/>
<circle cx="28.5" cy="54.5" r="2.5" fill="#D2D6DB"/>
<circle cx="41.5" cy="54.5" r="2.5" fill="#D2D6DB"/>
<circle cx="54.5" cy="54.5" r="2.5" fill="#D2D6DB"/>
<circle cx="67.5" cy="54.5" r="2.5" fill="#D2D6DB"/>
<circle cx="80.5" cy="54.5" r="2.5" fill="#D2D6DB"/>
<circle cx="93.5" cy="54.5" r="2.5" fill="#D2D6DB"/>
<circle cx="106.5" cy="54.5" r="2.5" fill="#D2D6DB"/>
<circle cx="119.5" cy="54.5" r="2.5" fill="#D2D6DB"/>
<circle cx="132.5" cy="54.5" r="2.5" fill="#D2D6DB"/>
<circle cx="145.5" cy="54.5" r="2.5" fill="#D2D6DB"/>
<circle cx="158.5" cy="54.5" r="2.5" fill="#D2D6DB"/>
<circle cx="171.5" cy="54.5" r="2.5" fill="#D2D6DB"/>
<circle cx="184.5" cy="54.5" r="2.5" fill="#D2D6DB"/>
<circle cx="197.5" cy="54.5" r="2.5" fill="#D2D6DB"/>
<circle cx="210.5" cy="54.5" r="2.5" fill="#D2D6DB"/>
<circle cx="223.5" cy="54.5" r="2.5" fill="#D2D6DB"/>
<circle cx="236.5" cy="54.5" r="2.5" fill="#D2D6DB"/>
<circle cx="249.5" cy="54.5" r="2.5" fill="#D2D6DB"/>
<circle cx="262.5" cy="54.5" r="2.5" fill="#D2D6DB"/>
<circle cx="275.5" cy="54.5" r="2.5" fill="#D2D6DB"/>
<circle cx="288.5" cy="54.5" r="2.5" fill="#D2D6DB"/>
<circle cx="301.5" cy="54.5" r="2.5" fill="#D2D6DB"/>
<circle cx="2.5" cy="67.5" r="2.5" fill="#D2D6DB"/>
<circle cx="15.5" cy="67.5" r="2.5" fill="#D2D6DB"/>
<circle cx="28.5" cy="67.5" r="2.5" fill="#D2D6DB"/>
<circle cx="41.5" cy="67.5" r="2.5" fill="#D2D6DB"/>
<circle cx="54.5" cy="67.5" r="2.5" fill="#D2D6DB"/>
<circle cx="67.5" cy="67.5" r="2.5" fill="#D2D6DB"/>
<circle cx="80.5" cy="67.5" r="2.5" fill="#D2D6DB"/>
<circle cx="93.5" cy="67.5" r="2.5" fill="#D2D6DB"/>
<circle cx="106.5" cy="67.5" r="2.5" fill="#D2D6DB"/>
<circle cx="119.5" cy="67.5" r="2.5" fill="#D2D6DB"/>
<circle cx="132.5" cy="67.5" r="2.5" fill="#D2D6DB"/>
<circle cx="145.5" cy="67.5" r="2.5" fill="#D2D6DB"/>
<circle cx="158.5" cy="67.5" r="2.5" fill="#D2D6DB"/>
<circle cx="171.5" cy="67.5" r="2.5" fill="#D2D6DB"/>
<circle cx="184.5" cy="67.5" r="2.5" fill="#D2D6DB"/>
<circle cx="197.5" cy="67.5" r="2.5" fill="#D2D6DB"/>
<circle cx="210.5" cy="67.5" r="2.5" fill="#D2D6DB"/>
<circle cx="223.5" cy="67.5" r="2.5" fill="#D2D6DB"/>
<circle cx="236.5" cy="67.5" r="2.5" fill="#D2D6DB"/>
<circle cx="249.5" cy="67.5" r="2.5" fill="#D2D6DB"/>
<circle cx="262.5" cy="67.5" r="2.5" fill="#D2D6DB"/>
<circle cx="275.5" cy="67.5" r="2.5" fill="#D2D6DB"/>
<circle cx="288.5" cy="67.5" r="2.5" fill="#D2D6DB"/>
<circle cx="301.5" cy="67.5" r="2.5" fill="#D2D6DB"/>
<circle cx="2.5" cy="80.5" r="2.5" fill="#D2D6DB"/>
<circle cx="15.5" cy="80.5" r="2.5" fill="#D2D6DB"/>
<circle cx="28.5" cy="80.5" r="2.5" fill="#D2D6DB"/>
<circle cx="41.5" cy="80.5" r="2.5" fill="#D2D6DB"/>
<circle cx="54.5" cy="80.5" r="2.5" fill="#D2D6DB"/>
<circle cx="67.5" cy="80.5" r="2.5" fill="#D2D6DB"/>
<circle cx="80.5" cy="80.5" r="2.5" fill="#D2D6DB"/>
<circle cx="93.5" cy="80.5" r="2.5" fill="#D2D6DB"/>
<circle cx="106.5" cy="80.5" r="2.5" fill="#D2D6DB"/>
<circle cx="119.5" cy="80.5" r="2.5" fill="#D2D6DB"/>
<circle cx="132.5" cy="80.5" r="2.5" fill="#D2D6DB"/>
<circle cx="145.5" cy="80.5" r="2.5" fill="#D2D6DB"/>
<circle cx="158.5" cy="80.5" r="2.5" fill="#D2D6DB"/>
<circle cx="171.5" cy="80.5" r="2.5" fill="#D2D6DB"/>
<circle cx="184.5" cy="80.5" r="2.5" fill="#D2D6DB"/>
<circle cx="197.5" cy="80.5" r="2.5" fill="#D2D6DB"/>
<circle cx="210.5" cy="80.5" r="2.5" fill="#D2D6DB"/>
<circle cx="223.5" cy="80.5" r="2.5" fill="#D2D6DB"/>
<circle cx="236.5" cy="80.5" r="2.5" fill="#D2D6DB"/>
<circle cx="249.5" cy="80.5" r="2.5" fill="#D2D6DB"/>
<circle cx="262.5" cy="80.5" r="2.5" fill="#D2D6DB"/>
<circle cx="275.5" cy="80.5" r="2.5" fill="#D2D6DB"/>
<circle cx="288.5" cy="80.5" r="2.5" fill="#D2D6DB"/>
<circle cx="301.5" cy="80.5" r="2.5" fill="#D2D6DB"/>
<circle cx="2.5" cy="93.5" r="2.5" fill="#D2D6DB"/>
<circle cx="15.5" cy="93.5" r="2.5" fill="#D2D6DB"/>
<circle cx="28.5" cy="93.5" r="2.5" fill="#D2D6DB"/>
<circle cx="41.5" cy="93.5" r="2.5" fill="#D2D6DB"/>
<circle cx="54.5" cy="93.5" r="2.5" fill="#D2D6DB"/>
<circle cx="67.5" cy="93.5" r="2.5" fill="#D2D6DB"/>
<circle cx="80.5" cy="93.5" r="2.5" fill="#D2D6DB"/>
<circle cx="93.5" cy="93.5" r="2.5" fill="#D2D6DB"/>
<circle cx="106.5" cy="93.5" r="2.5" fill="#D2D6DB"/>
<circle cx="119.5" cy="93.5" r="2.5" fill="#D2D6DB"/>
<circle cx="132.5" cy="93.5" r="2.5" fill="#D2D6DB"/>
<circle cx="145.5" cy="93.5" r="2.5" fill="#D2D6DB"/>
<circle cx="158.5" cy="93.5" r="2.5" fill="#D2D6DB"/>
<circle cx="171.5" cy="93.5" r="2.5" fill="#D2D6DB"/>
<circle cx="184.5" cy="93.5" r="2.5" fill="#D2D6DB"/>
<circle cx="197.5" cy="93.5" r="2.5" fill="#D2D6DB"/>
<circle cx="210.5" cy="93.5" r="2.5" fill="#D2D6DB"/>
<circle cx="223.5" cy="93.5" r="2.5" fill="#D2D6DB"/>
<circle cx="236.5" cy="93.5" r="2.5" fill="#D2D6DB"/>
<circle cx="249.5" cy="93.5" r="2.5" fill="#D2D6DB"/>
<circle cx="262.5" cy="93.5" r="2.5" fill="#D2D6DB"/>
<circle cx="275.5" cy="93.5" r="2.5" fill="#D2D6DB"/>
<circle cx="288.5" cy="93.5" r="2.5" fill="#D2D6DB"/>
<circle cx="301.5" cy="93.5" r="2.5" fill="#D2D6DB"/>
<circle cx="2.5" cy="106.5" r="2.5" fill="#D2D6DB"/>
<circle cx="15.5" cy="106.5" r="2.5" fill="#D2D6DB"/>
<circle cx="28.5" cy="106.5" r="2.5" fill="#D2D6DB"/>
<circle cx="41.5" cy="106.5" r="2.5" fill="#D2D6DB"/>
<circle cx="54.5" cy="106.5" r="2.5" fill="#D2D6DB"/>
<circle cx="67.5" cy="106.5" r="2.5" fill="#D2D6DB"/>
<circle cx="80.5" cy="106.5" r="2.5" fill="#D2D6DB"/>
<circle cx="93.5" cy="106.5" r="2.5" fill="#D2D6DB"/>
<circle cx="106.5" cy="106.5" r="2.5" fill="#D2D6DB"/>
<circle cx="119.5" cy="106.5" r="2.5" fill="#D2D6DB"/>
<circle cx="132.5" cy="106.5" r="2.5" fill="#D2D6DB"/>
<circle cx="145.5" cy="106.5" r="2.5" fill="#D2D6DB"/>
<circle cx="158.5" cy="106.5" r="2.5" fill="#D2D6DB"/>
<circle cx="171.5" cy="106.5" r="2.5" fill="#D2D6DB"/>
<circle cx="184.5" cy="106.5" r="2.5" fill="#D2D6DB"/>
<circle cx="197.5" cy="106.5" r="2.5" fill="#D2D6DB"/>
<circle cx="210.5" cy="106.5" r="2.5" fill="#D2D6DB"/>
<circle cx="223.5" cy="106.5" r="2.5" fill="#D2D6DB"/>
<circle cx="236.5" cy="106.5" r="2.5" fill="#D2D6DB"/>
<circle cx="249.5" cy="106.5" r="2.5" fill="#D2D6DB"/>
<circle cx="262.5" cy="106.5" r="2.5" fill="#D2D6DB"/>
<circle cx="275.5" cy="106.5" r="2.5" fill="#D2D6DB"/>
<circle cx="288.5" cy="106.5" r="2.5" fill="#D2D6DB"/>
<circle cx="301.5" cy="106.5" r="2.5" fill="#D2D6DB"/>
<circle cx="2.5" cy="119.5" r="2.5" fill="#D2D6DB"/>
<circle cx="15.5" cy="119.5" r="2.5" fill="#D2D6DB"/>
<circle cx="28.5" cy="119.5" r="2.5" fill="#D2D6DB"/>
<circle cx="41.5" cy="119.5" r="2.5" fill="#D2D6DB"/>
<circle cx="54.5" cy="119.5" r="2.5" fill="#D2D6DB"/>
<circle cx="67.5" cy="119.5" r="2.5" fill="#D2D6DB"/>
<circle cx="80.5" cy="119.5" r="2.5" fill="#D2D6DB"/>
<circle cx="93.5" cy="119.5" r="2.5" fill="#D2D6DB"/>
<circle cx="106.5" cy="119.5" r="2.5" fill="#D2D6DB"/>
<circle cx="119.5" cy="119.5" r="2.5" fill="#D2D6DB"/>
<circle cx="132.5" cy="119.5" r="2.5" fill="#D2D6DB"/>
<circle cx="145.5" cy="119.5" r="2.5" fill="#D2D6DB"/>
<circle cx="158.5" cy="119.5" r="2.5" fill="#D2D6DB"/>
<circle cx="171.5" cy="119.5" r="2.5" fill="#D2D6DB"/>
<circle cx="184.5" cy="119.5" r="2.5" fill="#D2D6DB"/>
<circle cx="197.5" cy="119.5" r="2.5" fill="#D2D6DB"/>
<circle cx="210.5" cy="119.5" r="2.5" fill="#D2D6DB"/>
<circle cx="223.5" cy="119.5" r="2.5" fill="#D2D6DB"/>
<circle cx="236.5" cy="119.5" r="2.5" fill="#D2D6DB"/>
<circle cx="249.5" cy="119.5" r="2.5" fill="#D2D6DB"/>
<circle cx="262.5" cy="119.5" r="2.5" fill="#D2D6DB"/>
<circle cx="275.5" cy="119.5" r="2.5" fill="#D2D6DB"/>
<circle cx="288.5" cy="119.5" r="2.5" fill="#D2D6DB"/>
<circle cx="301.5" cy="119.5" r="2.5" fill="#D2D6DB"/>
<circle cx="2.5" cy="132.5" r="2.5" fill="#D2D6DB"/>
<circle cx="15.5" cy="132.5" r="2.5" fill="#D2D6DB"/>
<circle cx="28.5" cy="132.5" r="2.5" fill="#D2D6DB"/>
<circle cx="41.5" cy="132.5" r="2.5" fill="#D2D6DB"/>
<circle cx="54.5" cy="132.5" r="2.5" fill="#D2D6DB"/>
<circle cx="67.5" cy="132.5" r="2.5" fill="#D2D6DB"/>
<circle cx="80.5" cy="132.5" r="2.5" fill="#D2D6DB"/>
<circle cx="93.5" cy="132.5" r="2.5" fill="#D2D6DB"/>
<circle cx="106.5" cy="132.5" r="2.5" fill="#D2D6DB"/>
<circle cx="119.5" cy="132.5" r="2.5" fill="#D2D6DB"/>
<circle cx="132.5" cy="132.5" r="2.5" fill="#D2D6DB"/>
<circle cx="145.5" cy="132.5" r="2.5" fill="#D2D6DB"/>
<circle cx="158.5" cy="132.5" r="2.5" fill="#D2D6DB"/>
<circle cx="171.5" cy="132.5" r="2.5" fill="#D2D6DB"/>
<circle cx="184.5" cy="132.5" r="2.5" fill="#D2D6DB"/>
<circle cx="197.5" cy="132.5" r="2.5" fill="#D2D6DB"/>
<circle cx="210.5" cy="132.5" r="2.5" fill="#D2D6DB"/>
<circle cx="223.5" cy="132.5" r="2.5" fill="#D2D6DB"/>
<circle cx="236.5" cy="132.5" r="2.5" fill="#D2D6DB"/>
<circle cx="249.5" cy="132.5" r="2.5" fill="#D2D6DB"/>
<circle cx="262.5" cy="132.5" r="2.5" fill="#D2D6DB"/>
<circle cx="275.5" cy="132.5" r="2.5" fill="#D2D6DB"/>
<circle cx="288.5" cy="132.5" r="2.5" fill="#D2D6DB"/>
<circle cx="301.5" cy="132.5" r="2.5" fill="#D2D6DB"/>
<circle cx="2.5" cy="145.5" r="2.5" fill="#D2D6DB"/>
<circle cx="15.5" cy="145.5" r="2.5" fill="#D2D6DB"/>
<circle cx="28.5" cy="145.5" r="2.5" fill="#D2D6DB"/>
<circle cx="41.5" cy="145.5" r="2.5" fill="#D2D6DB"/>
<circle cx="54.5" cy="145.5" r="2.5" fill="#D2D6DB"/>
<circle cx="67.5" cy="145.5" r="2.5" fill="#D2D6DB"/>
<circle cx="80.5" cy="145.5" r="2.5" fill="#D2D6DB"/>
<circle cx="93.5" cy="145.5" r="2.5" fill="#D2D6DB"/>
<circle cx="106.5" cy="145.5" r="2.5" fill="#D2D6DB"/>
<circle cx="119.5" cy="145.5" r="2.5" fill="#D2D6DB"/>
<circle cx="132.5" cy="145.5" r="2.5" fill="#D2D6DB"/>
<circle cx="145.5" cy="145.5" r="2.5" fill="#D2D6DB"/>
<circle cx="158.5" cy="145.5" r="2.5" fill="#D2D6DB"/>
<circle cx="171.5" cy="145.5" r="2.5" fill="#D2D6DB"/>
<circle cx="184.5" cy="145.5" r="2.5" fill="#D2D6DB"/>
<circle cx="197.5" cy="145.5" r="2.5" fill="#D2D6DB"/>
<circle cx="210.5" cy="145.5" r="2.5" fill="#D2D6DB"/>
<circle cx="223.5" cy="145.5" r="2.5" fill="#D2D6DB"/>
<circle cx="236.5" cy="145.5" r="2.5" fill="#D2D6DB"/>
<circle cx="249.5" cy="145.5" r="2.5" fill="#D2D6DB"/>
<circle cx="262.5" cy="145.5" r="2.5" fill="#D2D6DB"/>
<circle cx="275.5" cy="145.5" r="2.5" fill="#D2D6DB"/>
<circle cx="288.5" cy="145.5" r="2.5" fill="#D2D6DB"/>
<circle cx="301.5" cy="145.5" r="2.5" fill="#D2D6DB"/>
<circle cx="2.5" cy="158.5" r="2.5" fill="#D2D6DB"/>
<circle cx="15.5" cy="158.5" r="2.5" fill="#D2D6DB"/>
<circle cx="28.5" cy="158.5" r="2.5" fill="#D2D6DB"/>
<circle cx="41.5" cy="158.5" r="2.5" fill="#D2D6DB"/>
<circle cx="54.5" cy="158.5" r="2.5" fill="#D2D6DB"/>
<circle cx="67.5" cy="158.5" r="2.5" fill="#D2D6DB"/>
<circle cx="80.5" cy="158.5" r="2.5" fill="#D2D6DB"/>
<circle cx="93.5" cy="158.5" r="2.5" fill="#D2D6DB"/>
<circle cx="106.5" cy="158.5" r="2.5" fill="#D2D6DB"/>
<circle cx="119.5" cy="158.5" r="2.5" fill="#D2D6DB"/>
<circle cx="132.5" cy="158.5" r="2.5" fill="#D2D6DB"/>
<circle cx="145.5" cy="158.5" r="2.5" fill="#D2D6DB"/>
<circle cx="158.5" cy="158.5" r="2.5" fill="#D2D6DB"/>
<circle cx="171.5" cy="158.5" r="2.5" fill="#D2D6DB"/>
<circle cx="184.5" cy="158.5" r="2.5" fill="#D2D6DB"/>
<circle cx="197.5" cy="158.5" r="2.5" fill="#D2D6DB"/>
<circle cx="210.5" cy="158.5" r="2.5" fill="#D2D6DB"/>
<circle cx="223.5" cy="158.5" r="2.5" fill="#D2D6DB"/>
<circle cx="236.5" cy="158.5" r="2.5" fill="#D2D6DB"/>
<circle cx="249.5" cy="158.5" r="2.5" fill="#D2D6DB"/>
<circle cx="262.5" cy="158.5" r="2.5" fill="#D2D6DB"/>
<circle cx="275.5" cy="158.5" r="2.5" fill="#D2D6DB"/>
<circle cx="288.5" cy="158.5" r="2.5" fill="#D2D6DB"/>
<circle cx="301.5" cy="158.5" r="2.5" fill="#D2D6DB"/>
<circle cx="2.5" cy="171.5" r="2.5" fill="#D2D6DB"/>
<circle cx="15.5" cy="171.5" r="2.5" fill="#D2D6DB"/>
<circle cx="28.5" cy="171.5" r="2.5" fill="#D2D6DB"/>
<circle cx="41.5" cy="171.5" r="2.5" fill="#D2D6DB"/>
<circle cx="54.5" cy="171.5" r="2.5" fill="#D2D6DB"/>
<circle cx="67.5" cy="171.5" r="2.5" fill="#D2D6DB"/>
<circle cx="80.5" cy="171.5" r="2.5" fill="#D2D6DB"/>
<circle cx="93.5" cy="171.5" r="2.5" fill="#D2D6DB"/>
<circle cx="106.5" cy="171.5" r="2.5" fill="#D2D6DB"/>
<circle cx="119.5" cy="171.5" r="2.5" fill="#D2D6DB"/>
<circle cx="132.5" cy="171.5" r="2.5" fill="#D2D6DB"/>
<circle cx="145.5" cy="171.5" r="2.5" fill="#D2D6DB"/>
<circle cx="158.5" cy="171.5" r="2.5" fill="#D2D6DB"/>
<circle cx="171.5" cy="171.5" r="2.5" fill="#D2D6DB"/>
<circle cx="184.5" cy="171.5" r="2.5" fill="#D2D6DB"/>
<circle cx="197.5" cy="171.5" r="2.5" fill="#D2D6DB"/>
<circle cx="210.5" cy="171.5" r="2.5" fill="#D2D6DB"/>
<circle cx="223.5" cy="171.5" r="2.5" fill="#D2D6DB"/>
<circle cx="236.5" cy="171.5" r="2.5" fill="#D2D6DB"/>
<circle cx="249.5" cy="171.5" r="2.5" fill="#D2D6DB"/>
<circle cx="262.5" cy="171.5" r="2.5" fill="#D2D6DB"/>
<circle cx="275.5" cy="171.5" r="2.5" fill="#D2D6DB"/>
<circle cx="288.5" cy="171.5" r="2.5" fill="#D2D6DB"/>
<circle cx="301.5" cy="171.5" r="2.5" fill="#D2D6DB"/>
<circle cx="2.5" cy="184.5" r="2.5" fill="#D2D6DB"/>
<circle cx="15.5" cy="184.5" r="2.5" fill="#D2D6DB"/>
<circle cx="28.5" cy="184.5" r="2.5" fill="#D2D6DB"/>
<circle cx="41.5" cy="184.5" r="2.5" fill="#D2D6DB"/>
<circle cx="54.5" cy="184.5" r="2.5" fill="#D2D6DB"/>
<circle cx="67.5" cy="184.5" r="2.5" fill="#D2D6DB"/>
<circle cx="80.5" cy="184.5" r="2.5" fill="#D2D6DB"/>
<circle cx="93.5" cy="184.5" r="2.5" fill="#D2D6DB"/>
<circle cx="106.5" cy="184.5" r="2.5" fill="#D2D6DB"/>
<circle cx="119.5" cy="184.5" r="2.5" fill="#D2D6DB"/>
<circle cx="132.5" cy="184.5" r="2.5" fill="#D2D6DB"/>
<circle cx="145.5" cy="184.5" r="2.5" fill="#D2D6DB"/>
<circle cx="158.5" cy="184.5" r="2.5" fill="#D2D6DB"/>
<circle cx="171.5" cy="184.5" r="2.5" fill="#D2D6DB"/>
<circle cx="184.5" cy="184.5" r="2.5" fill="#D2D6DB"/>
<circle cx="197.5" cy="184.5" r="2.5" fill="#D2D6DB"/>
<circle cx="210.5" cy="184.5" r="2.5" fill="#D2D6DB"/>
<circle cx="223.5" cy="184.5" r="2.5" fill="#D2D6DB"/>
<circle cx="236.5" cy="184.5" r="2.5" fill="#D2D6DB"/>
<circle cx="249.5" cy="184.5" r="2.5" fill="#D2D6DB"/>
<circle cx="262.5" cy="184.5" r="2.5" fill="#D2D6DB"/>
<circle cx="275.5" cy="184.5" r="2.5" fill="#D2D6DB"/>
<circle cx="288.5" cy="184.5" r="2.5" fill="#D2D6DB"/>
<circle cx="301.5" cy="184.5" r="2.5" fill="#D2D6DB"/>
<circle cx="2.5" cy="197.5" r="2.5" fill="#D2D6DB"/>
<circle cx="15.5" cy="197.5" r="2.5" fill="#D2D6DB"/>
<circle cx="28.5" cy="197.5" r="2.5" fill="#D2D6DB"/>
<circle cx="41.5" cy="197.5" r="2.5" fill="#D2D6DB"/>
<circle cx="54.5" cy="197.5" r="2.5" fill="#D2D6DB"/>
<circle cx="67.5" cy="197.5" r="2.5" fill="#D2D6DB"/>
<circle cx="80.5" cy="197.5" r="2.5" fill="#D2D6DB"/>
<circle cx="93.5" cy="197.5" r="2.5" fill="#D2D6DB"/>
<circle cx="106.5" cy="197.5" r="2.5" fill="#D2D6DB"/>
<circle cx="119.5" cy="197.5" r="2.5" fill="#D2D6DB"/>
<circle cx="132.5" cy="197.5" r="2.5" fill="#D2D6DB"/>
<circle cx="145.5" cy="197.5" r="2.5" fill="#D2D6DB"/>
<circle cx="158.5" cy="197.5" r="2.5" fill="#D2D6DB"/>
<circle cx="171.5" cy="197.5" r="2.5" fill="#D2D6DB"/>
<circle cx="184.5" cy="197.5" r="2.5" fill="#D2D6DB"/>
<circle cx="197.5" cy="197.5" r="2.5" fill="#D2D6DB"/>
<circle cx="210.5" cy="197.5" r="2.5" fill="#D2D6DB"/>
<circle cx="223.5" cy="197.5" r="2.5" fill="#D2D6DB"/>
<circle cx="236.5" cy="197.5" r="2.5" fill="#D2D6DB"/>
<circle cx="249.5" cy="197.5" r="2.5" fill="#D2D6DB"/>
<circle cx="262.5" cy="197.5" r="2.5" fill="#D2D6DB"/>
<circle cx="275.5" cy="197.5" r="2.5" fill="#D2D6DB"/>
<circle cx="288.5" cy="197.5" r="2.5" fill="#D2D6DB"/>
<circle cx="301.5" cy="197.5" r="2.5" fill="#D2D6DB"/>
<circle cx="2.5" cy="210.5" r="2.5" fill="#D2D6DB"/>
<circle cx="15.5" cy="210.5" r="2.5" fill="#D2D6DB"/>
<circle cx="28.5" cy="210.5" r="2.5" fill="#D2D6DB"/>
<circle cx="41.5" cy="210.5" r="2.5" fill="#D2D6DB"/>
<circle cx="54.5" cy="210.5" r="2.5" fill="#D2D6DB"/>
<circle cx="67.5" cy="210.5" r="2.5" fill="#D2D6DB"/>
<circle cx="80.5" cy="210.5" r="2.5" fill="#D2D6DB"/>
<circle cx="93.5" cy="210.5" r="2.5" fill="#D2D6DB"/>
<circle cx="106.5" cy="210.5" r="2.5" fill="#D2D6DB"/>
<circle cx="119.5" cy="210.5" r="2.5" fill="#D2D6DB"/>
<circle cx="132.5" cy="210.5" r="2.5" fill="#D2D6DB"/>
<circle cx="145.5" cy="210.5" r="2.5" fill="#D2D6DB"/>
<circle cx="158.5" cy="210.5" r="2.5" fill="#D2D6DB"/>
<circle cx="171.5" cy="210.5" r="2.5" fill="#D2D6DB"/>
<circle cx="184.5" cy="210.5" r="2.5" fill="#D2D6DB"/>
<circle cx="197.5" cy="210.5" r="2.5" fill="#D2D6DB"/>
<circle cx="210.5" cy="210.5" r="2.5" fill="#D2D6DB"/>
<circle cx="223.5" cy="210.5" r="2.5" fill="#D2D6DB"/>
<circle cx="236.5" cy="210.5" r="2.5" fill="#D2D6DB"/>
<circle cx="249.5" cy="210.5" r="2.5" fill="#D2D6DB"/>
<circle cx="262.5" cy="210.5" r="2.5" fill="#D2D6DB"/>
<circle cx="275.5" cy="210.5" r="2.5" fill="#D2D6DB"/>
<circle cx="288.5" cy="210.5" r="2.5" fill="#D2D6DB"/>
<circle cx="301.5" cy="210.5" r="2.5" fill="#D2D6DB"/>
</g>
</mask>
<g mask="url(#mask0_74_963)">
<path d="M67.9253 63.3682L37.0928 111.415C27.6966 126.057 38.2105 145.296 55.6082 145.296H242.437C250.391 145.296 257.726 141.003 261.62 134.068L288.599 86.0213C296.833 71.3562 286.235 53.25 269.416 53.25H86.4408C78.9487 53.25 71.9716 57.0628 67.9253 63.3682Z" fill="#B5B5B5"/>
</g>
<defs>
<filter id="filter0_d_74_963" x="40.8499" y="65" width="292.298" height="135" filterUnits="userSpaceOnUse" color-interpolation-filters="sRGB">
<feFlood flood-opacity="0" result="BackgroundImageFix"/>
<feColorMatrix in="SourceAlpha" type="matrix" values="0 0 0 0 0 0 0 0 0 0 0 0 0 0 0 0 0 0 127 0" result="hardAlpha"/>
<feOffset dy="3"/>
<feGaussianBlur stdDeviation="3.5"/>
<feComposite in2="hardAlpha" operator="out"/>
<feColorMatrix type="matrix" values="0 0 0 0 0 0 0 0 0 0 0 0 0 0 0 0 0 0 0.25 0"/>
<feBlend mode="normal" in2="BackgroundImageFix" result="effect1_dropShadow_74_963"/>
<feBlend mode="normal" in="SourceGraphic" in2="effect1_dropShadow_74_963" result="shape"/>
</filter>
<clipPath id="clip0_74_963">
<rect width="307" height="213" fill="white"/>
</clipPath>
</defs>
</svg>
